<?xml version="1.0" encoding="UTF-8" standalone="no"?>
<!DOCTYPE svg PUBLIC "-//W3C//DTD SVG 1.1//EN" "http://www.w3.org/Graphics/SVG/1.1/DTD/svg11.dtd">
<!-- Created with Vectornator (http://vectornator.io/) -->
<svg height="100%" stroke-miterlimit="10" style="fill-rule:nonzero;clip-rule:evenodd;stroke-linecap:round;stroke-linejoin:round;" version="1.1" viewBox="0 0 512 512" width="100%" xml:space="preserve" xmlns="http://www.w3.org/2000/svg" xmlns:xlink="http://www.w3.org/1999/xlink">
<defs/>
<g id="Calque-1">
<g opacity="1">
<path d="M366.923 31.8839L426.044 136.503L327.998 191.676L259.132 69.2843C313.796-12.4429 366.923 31.8839 366.923 31.8839" fill="#559416" fill-rule="nonzero" opacity="1" stroke="none"/>
<path d="M216.488 132.618L245.6 148.998L123.965 183.41L89.4599 61.1372L118.445 77.4516L142.965 33.8708C144.139 31.9249 156.91 12.1007 190.421 10.9633L320.831 10.9633C327.892 11.2029 334.03 12.2713 339.335 13.8313C318.329 10.0614 287.179 15.9234 255.521 63.2537L255.773 62.7987L216.488 132.618" fill="#559416" fill-rule="nonzero" opacity="1" stroke="none"/>
<path d="M87.6414 349.146C-10.3872 341.549 2.21527 273.512 2.21527 273.512L64.4397 170.708L160.576 229.136L87.6414 349.146" fill="#559416" fill-rule="nonzero" opacity="1" stroke="none"/>
<path d="M84.1537 355.25L83.6342 355.25L163.745 355.278L163.758 321.877L253.363 411.04L163.695 501.037L163.705 467.777L113.703 467.761C111.432 467.691 87.892 466.274 70.4788 437.619L6.56957 323.942C3.31801 317.671 1.24289 311.799 0 306.412C7.01067 326.567 27.3847 350.849 84.1537 355.25" fill="#559416" fill-rule="nonzero" opacity="1" stroke="none"/>
<path d="M419.181 355.202C463.407 443.015 398.667 467.438 398.667 467.438L278.497 467.388L278.749 354.889L419.181 355.202" fill="#559416" fill-rule="nonzero" opacity="1" stroke="none"/>
<path d="M426.212 355.025L426.479 355.47L385.049 286.902L356.458 304.178L386.392 181.363L509.803 211.522L481.337 228.723L507.199 271.521C508.311 273.5 519.281 294.376 503.773 324.105L439.566 437.616C435.886 443.643 431.93 448.459 427.966 452.309C441.587 435.88 451.819 405.881 426.212 355.025" fill="#559416" fill-rule="nonzero" opacity="1" stroke="none"/>
</g>
</g>
</svg>
