<?xml version="1.0" encoding="UTF-8" standalone="no"?>
<!DOCTYPE svg PUBLIC "-//W3C//DTD SVG 1.1//EN" "http://www.w3.org/Graphics/SVG/1.1/DTD/svg11.dtd">
<!-- Created with Vectornator (http://vectornator.io/) -->
<svg height="100%" stroke-miterlimit="10" style="fill-rule:nonzero;clip-rule:evenodd;stroke-linecap:round;stroke-linejoin:round;" version="1.1" viewBox="0 0 512 512" width="100%" xml:space="preserve" xmlns="http://www.w3.org/2000/svg" xmlns:xlink="http://www.w3.org/1999/xlink">
<defs/>
<g id="Calque-1">
<g opacity="1">
<path d="M362.204 309.062L149.796 309.062C131.05 309.062 115.854 293.864 115.854 275.119L115.854 175.598C115.854 148.194 130.835 122.982 154.904 109.878L239.771 63.6778C249.889 58.1705 262.111 58.1705 272.229 63.6778L357.096 109.878C381.165 122.982 396.146 148.194 396.146 175.598L396.146 275.119C396.146 293.864 380.95 309.062 362.204 309.062" fill="#00acda" fill-rule="nonzero" opacity="1" stroke="none"/>
<path d="M359.425 512L152.575 512C138.204 512 126.553 500.35 126.553 485.978L126.553 299.653L385.447 299.653L385.447 485.978C385.447 500.35 373.796 512 359.425 512" fill="#00acda" fill-rule="nonzero" opacity="1" stroke="none"/>
<path d="M390.002 356.004L121.998 356.004C118.605 356.004 115.854 353.253 115.854 349.859L115.854 325.315C115.854 321.921 118.605 319.17 121.998 319.17L390.002 319.17C393.395 319.17 396.146 321.921 396.146 325.315L396.146 349.859C396.146 353.253 393.395 356.004 390.002 356.004" fill="#00acda" fill-rule="nonzero" opacity="1" stroke="none"/>
<path d="M390.002 418.835L121.998 418.835C118.605 418.835 115.854 416.084 115.854 412.692L115.854 388.147C115.854 384.753 118.605 382.003 121.998 382.003L390.002 382.003C393.395 382.003 396.146 384.753 396.146 388.147L396.146 412.692C396.146 416.084 393.395 418.835 390.002 418.835" fill="#00acda" fill-rule="nonzero" opacity="1" stroke="none"/>
<path d="M390.002 481.667L121.998 481.667C118.605 481.667 115.854 478.916 115.854 475.523L115.854 450.978C115.854 447.586 118.605 444.835 121.998 444.835L390.002 444.835C393.395 444.835 396.146 447.586 396.146 450.978L396.146 475.523C396.146 478.916 393.395 481.667 390.002 481.667" fill="#00acda" fill-rule="nonzero" opacity="1" stroke="none"/>
<path d="M216.029 104.555L296.467 104.555L296.467 46.4199L216.029 46.4199L216.029 104.555Z" fill="#00acda" fill-rule="nonzero" opacity="1" stroke="none"/>
<path d="M308.533 46.4205L203.963 46.4205L203.963 15.7221C203.963 7.03901 211.002 0 219.685 0L292.81 0C301.494 0 308.533 7.03901 308.533 15.7221L308.533 46.4205" fill="#0070b6" fill-rule="nonzero" opacity="1" stroke="none"/>
<path d="M216.029 59.5465L296.467 59.5465L296.467 46.4195L216.029 46.4195L216.029 59.5465Z" fill="#009ac4" fill-rule="nonzero" opacity="1" stroke="none"/>
<path d="M341.144 503.224L171.351 503.224C158.593 503.224 147.799 494.157 144.188 481.667L160.337 481.667C164.936 489.052 172.324 493.842 180.657 493.842L205.032 493.842L205.032 493.842L331.343 493.842C339.676 493.842 347.064 489.052 351.663 481.667L368.307 481.667C364.695 494.157 353.903 503.224 341.144 503.224M377.13 444.835L364.915 444.835L364.915 443.231C364.915 437.47 361.29 432.726 356.6 432.008L356.6 429.948L356.6 418.835L369.604 418.835L369.604 439.827C372.733 440.262 375.44 442.145 377.13 444.835M147.085 444.835L135.365 444.835C137.054 442.145 139.763 440.262 142.892 439.827L142.892 418.835L155.4 418.835L155.4 432.008C154.2 432.191 153.07 432.639 152.052 433.299C150.661 434.202 149.481 435.502 148.62 437.073C147.649 438.844 147.085 440.958 147.085 443.231L147.085 443.231L147.085 443.231L147.085 444.835" fill="#4dc5e5" fill-rule="nonzero" opacity="1" stroke="none"/>
<path d="M372.185 299.653L356.6 299.653L356.6 298.194C361.716 292.485 364.915 284.385 364.915 275.395L364.915 183.617C364.915 158.346 353.273 135.096 334.568 123.012L177.432 123.012C158.727 135.096 147.085 158.346 147.085 183.617L147.085 275.395L147.085 275.395C147.085 284.385 150.284 292.485 155.4 298.194L155.4 299.653L140.309 299.653C136.072 294.107 133.522 287.001 133.522 279.25L133.522 185.151C133.522 159.24 146.641 135.402 167.718 123.012L216.029 94.6162L216.029 104.555L296.466 104.555L296.466 94.6162L344.777 123.012C365.854 135.402 378.973 159.24 378.973 185.151L378.973 279.25C378.973 287.001 376.424 294.107 372.185 299.653" fill="#4dc5e5" fill-rule="nonzero" opacity="1" stroke="none"/>
<path d="M373.795 382.003L364.507 382.003C363.435 377.803 360.359 374.64 356.6 374.065L356.6 369.504L356.6 356.004L369.604 356.004L369.604 380.417C371.123 380.629 372.543 381.182 373.795 382.003M147.494 382.003L138.7 382.003C139.952 381.182 141.373 380.629 142.892 380.417L142.892 356.004L155.4 356.004L155.4 374.065C151.641 374.64 148.565 377.803 147.494 382.003M369.604 319.17L361.97 319.17C360.534 317.543 358.671 316.439 356.6 316.123L356.6 299.653L372.185 299.653C371.384 300.702 370.521 301.695 369.604 302.626L369.604 319.17M150.03 319.17L142.892 319.17L142.892 302.626C141.975 301.695 141.112 300.702 140.309 299.653L155.4 299.653L155.4 316.123C153.329 316.439 151.466 317.543 150.03 319.17" fill="#4dc5e5" fill-rule="nonzero" opacity="1" stroke="none"/>
<path d="M369.604 356.004L356.6 356.004L356.6 349.88C361.29 349.162 364.915 344.417 364.915 338.657L364.915 327.345C364.915 324.13 363.785 321.23 361.97 319.17L369.604 319.17L369.604 321.009C374.887 321.745 378.973 326.61 378.973 332.515L378.973 344.114C378.973 350.02 374.887 354.884 369.604 355.619L369.604 356.004M155.4 356.004L142.892 356.004L142.892 355.619C137.608 354.884 133.522 350.02 133.522 344.114L133.522 332.515C133.522 326.61 137.608 321.745 142.892 321.009L142.892 319.17L150.03 319.17C148.215 321.23 147.085 324.13 147.085 327.345L147.085 338.657L147.085 338.657C147.085 338.916 147.092 339.172 147.106 339.428C147.413 344.836 150.921 349.194 155.4 349.88L155.4 349.88L155.4 356.004" fill="#4dc5e5" fill-rule="nonzero" opacity="1" stroke="none"/>
<path d="M369.604 418.835L356.6 418.835L356.6 407.822C361.29 407.105 364.915 402.36 364.915 396.601L364.915 385.287C364.915 384.144 364.772 383.042 364.507 382.003L373.795 382.003C376.899 384.037 378.973 387.716 378.973 391.924L378.973 403.522C378.973 409.428 374.887 414.292 369.604 415.029L369.604 418.835M155.4 418.835L142.892 418.835L142.892 415.029C137.608 414.292 133.522 409.428 133.522 403.522L133.522 391.924C133.522 387.716 135.596 384.037 138.7 382.003L147.494 382.003C147.259 382.92 147.12 383.886 147.091 384.885C147.087 385.018 147.085 385.153 147.085 385.287L147.085 396.601L147.085 396.601L147.085 396.601C147.085 398.04 147.311 399.417 147.724 400.683C148.919 404.342 151.672 407.079 155.017 407.755C155.144 407.78 155.272 407.803 155.4 407.822L155.4 418.835" fill="#4dc5e5" fill-rule="nonzero" opacity="1" stroke="none"/>
<path d="M368.307 481.667L351.663 481.667C354.465 477.168 356.231 471.706 356.545 465.775C361.26 465.088 364.915 460.326 364.915 454.543L364.915 444.835L377.13 444.835C378.293 446.688 378.973 448.924 378.973 451.333L378.973 462.931C378.973 468.861 374.856 473.743 369.541 474.448C369.395 476.948 368.974 479.365 368.307 481.667M160.337 481.667L144.188 481.667C143.522 479.365 143.1 476.948 142.955 474.448C137.64 473.743 133.522 468.861 133.522 462.931L133.522 451.333C133.522 448.924 134.203 446.688 135.365 444.835L147.085 444.835L147.085 454.543L147.085 454.543L147.085 454.543C147.085 460.326 150.74 465.088 155.455 465.775L155.455 465.775C155.769 471.706 157.535 477.168 160.337 481.667" fill="#4dc5e5" fill-rule="nonzero" opacity="1" stroke="none"/>
<path d="M296.466 104.555L216.029 104.555L216.029 94.6162L242.036 79.3285C246.466 76.7242 251.357 75.4232 256.248 75.4232C261.138 75.4232 266.029 76.7242 270.459 79.3285L296.466 94.6162L296.466 104.555" fill="#4dc5e5" fill-rule="nonzero" opacity="1" stroke="none"/>
<path d="M331.343 493.842L205.032 493.842C196.7 493.842 189.311 489.052 184.712 481.667L351.663 481.667C347.064 489.052 339.676 493.842 331.343 493.842M364.915 444.835L171.46 444.835L171.46 443.231C171.46 437.47 175.086 432.726 179.775 432.008L179.775 418.835L179.775 429.948L356.6 429.948L356.6 432.008C361.29 432.726 364.915 437.47 364.915 443.231L364.915 444.835" fill="#83d7ed" fill-rule="nonzero" opacity="1" stroke="none"/>
<path d="M179.775 299.653L179.775 299.653L179.775 298.194C174.659 292.485 171.46 284.385 171.46 275.395L171.46 183.617C171.46 158.346 183.102 135.096 201.808 123.012L177.432 123.012C158.727 135.096 147.085 158.346 147.085 183.617L147.085 275.395L147.085 275.395L147.085 183.617C147.085 158.346 158.727 135.096 177.432 123.012L334.568 123.012C353.273 135.096 364.915 158.346 364.915 183.617L364.915 275.395C364.915 284.385 361.716 292.485 356.6 298.194L356.6 298.194L179.775 298.194L179.775 299.653" fill="#83d7ed" fill-rule="nonzero" opacity="1" stroke="none"/>
<path d="M364.507 382.003L171.869 382.003C172.941 377.803 176.016 374.64 179.775 374.065L179.775 356.004L179.775 369.504L356.6 369.504L356.6 374.065C360.359 374.64 363.435 377.803 364.507 382.003M361.97 319.17L174.405 319.17C175.841 317.543 177.704 316.439 179.775 316.123L179.775 299.653L179.775 316.123L356.6 316.123C358.671 316.439 360.534 317.543 361.97 319.17" fill="#83d7ed" fill-rule="nonzero" opacity="1" stroke="none"/>
<path d="M179.775 356.004L179.775 356.004L179.775 349.88C175.086 349.162 171.46 344.417 171.46 338.657L171.46 327.345C171.46 324.13 172.591 321.23 174.405 319.17L361.97 319.17C363.785 321.23 364.915 324.13 364.915 327.345L364.915 338.657C364.915 344.417 361.29 349.162 356.6 349.88L356.6 351.576L179.775 351.576L179.775 356.004" fill="#83d7ed" fill-rule="nonzero" opacity="1" stroke="none"/>
<path d="M179.775 418.835L179.775 418.835L179.775 407.822C175.086 407.105 171.46 402.36 171.46 396.601L171.46 385.287C171.46 384.144 171.603 383.042 171.869 382.003L364.507 382.003C364.772 383.042 364.915 384.144 364.915 385.287L364.915 396.601C364.915 402.36 361.29 407.105 356.6 407.822L356.6 412.019L179.775 412.019L179.775 418.835" fill="#83d7ed" fill-rule="nonzero" opacity="1" stroke="none"/>
<path d="M351.663 481.667L184.712 481.667C181.91 477.168 180.145 471.706 179.831 465.775C175.115 465.088 171.46 460.326 171.46 454.543L171.46 444.835L364.915 444.835L364.915 454.543C364.915 460.326 361.26 465.088 356.545 465.775C356.231 471.706 354.465 477.168 351.663 481.667M155.455 465.775C150.74 465.088 147.085 460.326 147.085 454.543C147.085 460.326 150.74 465.088 155.455 465.775" fill="#83d7ed" fill-rule="nonzero" opacity="1" stroke="none"/>
<path d="M148.62 437.073C149.481 435.502 150.661 434.202 152.052 433.299C150.661 434.202 149.481 435.502 148.62 437.073" fill="#83d7ed" fill-rule="nonzero" opacity="1" stroke="none"/>
<path d="M155.017 407.755C151.672 407.079 148.919 404.342 147.724 400.683C148.919 404.342 151.672 407.079 155.017 407.755" fill="#83d7ed" fill-rule="nonzero" opacity="1" stroke="none"/>
<path d="M155.4 349.88C150.921 349.194 147.413 344.836 147.106 339.428C147.413 344.836 150.921 349.194 155.4 349.88" fill="#83d7ed" fill-rule="nonzero" opacity="1" stroke="none"/>
<path d="M147.085 443.231L147.085 443.231C147.085 440.958 147.649 438.844 148.62 437.073C147.649 438.844 147.085 440.958 147.085 443.231M152.052 433.299C153.07 432.639 154.2 432.191 155.4 432.008L155.4 432.008C154.2 432.191 153.07 432.639 152.052 433.299" fill="#83d7ed" fill-rule="nonzero" opacity="1" stroke="none"/>
<path d="M147.724 400.683C147.311 399.417 147.085 398.04 147.085 396.601L147.085 396.601C147.085 398.04 147.311 399.417 147.724 400.683" fill="#83d7ed" fill-rule="nonzero" opacity="1" stroke="none"/>
<path d="M147.494 382.003L147.494 382.003C148.565 377.803 151.641 374.64 155.4 374.065L155.4 374.065C151.641 374.64 148.565 377.803 147.494 382.003" fill="#83d7ed" fill-rule="nonzero" opacity="1" stroke="none"/>
<path d="M147.091 384.885C147.12 383.886 147.259 382.92 147.494 382.003L147.494 382.003C147.259 382.92 147.12 383.886 147.091 384.885" fill="#83d7ed" fill-rule="nonzero" opacity="1" stroke="none"/>
<path d="M205.032 493.842L180.657 493.842C172.324 493.842 164.936 489.052 160.337 481.667L184.712 481.667C189.311 489.052 196.7 493.842 205.032 493.842M171.46 444.835L147.085 444.835L147.085 443.231C147.085 440.958 147.649 438.844 148.62 437.073C149.481 435.502 150.661 434.202 152.052 433.299C153.07 432.639 154.2 432.191 155.4 432.008L155.4 432.008L155.4 432.008L155.4 418.835L179.775 418.835L179.775 432.008C175.086 432.726 171.46 437.47 171.46 443.231L171.46 444.835" fill="#a8e3f2" fill-rule="nonzero" opacity="1" stroke="none"/>
<path d="M179.775 299.653L155.4 299.653L155.4 298.194C150.284 292.485 147.085 284.385 147.085 275.395L147.085 183.617C147.085 158.346 158.727 135.096 177.432 123.012L201.808 123.012C183.102 135.096 171.46 158.346 171.46 183.617L171.46 275.395C171.46 284.385 174.659 292.485 179.775 298.194L179.775 299.653" fill="#a8e3f2" fill-rule="nonzero" opacity="1" stroke="none"/>
<path d="M171.869 382.003L147.494 382.003C148.565 377.803 151.641 374.64 155.4 374.065L155.4 374.065L155.4 374.065L155.4 356.004L179.775 356.004L179.775 374.065C176.016 374.64 172.941 377.803 171.869 382.003M174.405 319.17L150.03 319.17C151.466 317.543 153.329 316.439 155.4 316.123L155.4 299.653L179.775 299.653L179.775 316.123C177.704 316.439 175.841 317.543 174.405 319.17" fill="#a8e3f2" fill-rule="nonzero" opacity="1" stroke="none"/>
<path d="M179.775 356.004L155.4 356.004L155.4 349.88C150.921 349.194 147.413 344.836 147.106 339.428C147.092 339.172 147.085 338.916 147.085 338.657L147.085 327.345C147.085 324.13 148.215 321.23 150.03 319.17L174.405 319.17C172.591 321.23 171.46 324.13 171.46 327.345L171.46 338.657C171.46 344.417 175.086 349.162 179.775 349.88L179.775 356.004" fill="#a8e3f2" fill-rule="nonzero" opacity="1" stroke="none"/>
<path d="M179.775 418.835L155.4 418.835L155.4 407.822C155.272 407.803 155.144 407.78 155.017 407.755C151.672 407.079 148.919 404.342 147.724 400.683C147.311 399.417 147.085 398.04 147.085 396.601L147.085 385.287C147.085 385.153 147.087 385.018 147.091 384.885C147.12 383.886 147.259 382.92 147.494 382.003L171.869 382.003C171.603 383.042 171.46 384.144 171.46 385.287L171.46 396.601C171.46 402.36 175.086 407.105 179.775 407.822L179.775 418.835" fill="#a8e3f2" fill-rule="nonzero" opacity="1" stroke="none"/>
<path d="M184.712 481.667L160.337 481.667C157.535 477.168 155.769 471.706 155.455 465.775L155.455 465.775C150.74 465.088 147.085 460.326 147.085 454.543L147.085 454.543L147.085 444.835L171.46 444.835L171.46 454.543C171.46 460.326 175.115 465.088 179.831 465.775C180.145 471.706 181.91 477.168 184.712 481.667" fill="#a8e3f2" fill-rule="nonzero" opacity="1" stroke="none"/>
<path d="M179.775 299.653L356.6 299.653L356.6 298.194L179.775 298.194L179.775 299.653Z" fill="#76c1d5" fill-rule="nonzero" opacity="1" stroke="none"/>
<path d="M356.6 316.123L179.775 316.123L179.775 299.653L356.6 299.653L356.6 316.123L356.6 316.123" fill="#76c1d5" fill-rule="nonzero" opacity="1" stroke="none"/>
<path d="M179.775 369.504L356.6 369.504L356.6 356.003L179.775 356.003L179.775 369.504Z" fill="#76c1d5" fill-rule="nonzero" opacity="1" stroke="none"/>
<path d="M179.775 356.004L356.6 356.004L356.6 351.576L179.775 351.576L179.775 356.004Z" fill="#76c1d5" fill-rule="nonzero" opacity="1" stroke="none"/>
<path d="M179.775 429.948L356.6 429.948L356.6 418.835L179.775 418.835L179.775 429.948Z" fill="#76c1d5" fill-rule="nonzero" opacity="1" stroke="none"/>
<path d="M179.775 418.835L356.6 418.835L356.6 412.02L179.775 412.02L179.775 418.835Z" fill="#76c1d5" fill-rule="nonzero" opacity="1" stroke="none"/>
</g>
</g>
</svg>
