<?xml version="1.0" encoding="UTF-8" standalone="no"?>
<!DOCTYPE svg PUBLIC "-//W3C//DTD SVG 1.1//EN" "http://www.w3.org/Graphics/SVG/1.1/DTD/svg11.dtd">
<!-- Created with Vectornator (http://vectornator.io/) -->
<svg height="100%" stroke-miterlimit="10" style="fill-rule:nonzero;clip-rule:evenodd;stroke-linecap:round;stroke-linejoin:round;" version="1.1" viewBox="0 0 512 512" width="100%" xml:space="preserve" xmlns="http://www.w3.org/2000/svg" xmlns:xlink="http://www.w3.org/1999/xlink">
<defs/>
<clipPath id="ArtboardFrame">
<rect height="512" width="512" x="0" y="0"/>
</clipPath>
<g clip-path="url(#ArtboardFrame)" id="Calque-1">
<g opacity="1">
<path d="M79.9841 255.994L15.9825 255.994C7.13233 255.994-0.0178668 263.144-0.0178668 271.994L-0.0178668 496C-0.0178668 504.85 7.13233 512 15.9825 512L79.9841 512C88.8343 512 95.9845 504.85 95.9845 496L95.9845 271.994C95.9845 263.144 88.8343 255.994 79.9841 255.994" fill="#455a64" fill-rule="nonzero" opacity="1" stroke="none"/>
<path d="M501.87 290.52C485.62 269.569 455.405 265.819 434.531 282.107L316.528 373.884C308.09 380.434 297.727 383.997 287.052 383.997L175.987 383.997C220.175 383.997 255.989 348.183 255.989 303.995C255.989 295.157 248.826 287.994 239.988 287.994L95.9845 287.994L95.9845 383.997L95.9845 479.999L308.99 479.999C326.778 479.999 344.064 474.074 358.103 463.149L493.47 357.871C514.408 341.608 518.158 311.445 501.87 290.52" fill="#ffd54f" fill-rule="nonzero" opacity="1" stroke="none"/>
<path d="M255.989 63.976C247.138 63.976 239.988 56.8142 239.988 47.9756L239.988 16.0004C239.988 7.16178 247.138 0 255.989 0C264.839 0 271.989 7.16178 271.989 16.0004L271.989 47.9756C271.989 56.8142 264.839 63.976 255.989 63.976" fill="#eceff1" fill-rule="nonzero" opacity="1" stroke="none"/>
<path d="M479.469 203.867C452.595 102.665 360.718 31.9752 255.989 31.9752C151.261 31.9752 59.3711 102.665 32.5205 203.867C31.2454 208.68 32.2831 213.793 35.2957 217.73C38.3207 221.668 43.0082 223.98 47.9833 223.98L463.994 223.98C468.97 223.98 473.658 221.668 476.682 217.73C479.706 213.793 480.743 208.68 479.469 203.867" fill="#cfd8dc" fill-rule="nonzero" opacity="1" stroke="none"/>
<path d="M495.995 223.98L15.9825 223.98C7.13233 223.98-0.0178668 216.818-0.0178668 207.98C-0.0178668 199.13 7.13233 191.979 15.9825 191.979L495.995 191.979C504.846 191.979 511.995 199.13 511.995 207.98C511.995 216.818 504.846 223.98 495.995 223.98" fill="#b0bec5" fill-rule="nonzero" opacity="1" stroke="none"/>
</g>
</g>
</svg>
