<svg height="100%" stroke-miterlimit="10" style="fill-rule:nonzero;clip-rule:evenodd;stroke-linecap:round;stroke-linejoin:round;" version="1.1" viewBox="0 0 512 512" width="100%" xml:space="preserve" xmlns="http://www.w3.org/2000/svg" xmlns:xlink="http://www.w3.org/1999/xlink">
<g>
<path d="M285.947 391.508C285.744 391.38 280.118 387.844 270.602 384.312C261.088 380.785 247.672 377.253 231.915 377.25C221.905 377.25 210.954 378.683 199.538 382.453C188.123 386.221 176.253 392.327 164.414 401.588C144.023 417.546 129.607 434.768 116.023 447.578C109.237 453.992 102.689 459.288 95.8241 462.928C88.9456 466.567 81.7889 468.622 73.313 468.633C65.2578 468.635 55.9426 466.727 44.7378 462.165C33.5391 457.607 20.4872 450.395 5.09502 439.93L0 447.427C15.7601 458.137 29.3123 465.667 41.3187 470.559C53.3195 475.446 63.8102 477.697 73.313 477.697C83.303 477.709 92.1245 475.166 100.074 470.934C112.017 464.57 122.088 454.636 132.929 443.566C143.76 432.48 155.347 420.182 169.998 408.728C181.048 400.087 191.954 394.504 202.38 391.06C212.807 387.618 222.767 386.316 231.915 386.314C246.306 386.313 258.693 389.56 267.449 392.81C271.827 394.433 275.291 396.054 277.637 397.254C278.809 397.856 279.703 398.35 280.289 398.688C280.583 398.855 280.8 398.984 280.937 399.067L281.083 399.155L281.11 399.172L281.551 398.465L281.107 399.171L281.11 399.172L281.551 398.465L281.107 399.171L285.947 391.508" fill="#4f4c4c"/>
<path d="M507.467 223.173C507.467 324.982 424.937 407.512 323.127 407.512C221.319 407.512 138.787 324.982 138.787 223.173C138.787 121.366 221.319 38.8355 323.127 38.8355C424.937 38.8355 507.467 121.366 507.467 223.173" fill="#bdbcbc"/>
<path d="M507.467 223.173L502.936 223.173C502.933 272.841 482.817 317.763 450.271 350.316C417.718 382.862 372.796 402.978 323.127 402.979C273.46 402.978 228.537 382.862 195.985 350.316C163.438 317.763 143.322 272.841 143.32 223.173C143.322 173.507 163.438 128.585 195.985 96.0315C228.537 63.4844 273.46 43.3683 323.127 43.3667C372.796 43.3683 417.718 63.4844 450.271 96.0315C482.817 128.585 502.933 173.507 502.936 223.173L507.467 223.173L512 223.173C512.002 171.034 490.853 123.786 456.68 89.6225C422.517 55.4495 375.269 34.3012 323.127 34.3027C270.986 34.3012 223.74 55.4495 189.576 89.6225C155.403 123.786 134.255 171.032 134.256 223.173C134.255 275.314 155.403 322.56 189.576 356.725C223.74 390.897 270.986 412.046 323.127 412.043C375.269 412.046 422.517 390.897 456.68 356.725C490.853 322.56 512.002 275.314 512 223.173L507.467 223.173" fill="#4f4c4c"/>
<path d="M240.578 62.9916L240.585 62.9916C240.742 62.9823 242.71 62.8626 246.216 62.8626C261.275 62.858 304.641 65.0591 354.62 87.238C379.614 98.3258 406.271 114.399 431.955 137.702C457.638 161.009 482.358 191.549 503.457 231.662L511.479 227.442C489.907 186.424 464.507 154.998 438.045 130.989C398.351 94.9682 356.306 75.6589 321.267 65.3746C286.221 55.0888 258.16 53.8017 246.216 53.7986C242.259 53.7986 240.071 53.9416 239.979 53.9479L240.578 62.9916" fill="#4f4c4c"/>
<path d="M202.327 90.1603L202.444 90.1619C205.226 90.1743 256.84 90.9469 318.042 116.137C348.648 128.728 381.647 147.403 412.242 175.103C442.835 202.808 471.045 239.529 492.105 288.388L500.429 284.802C478.52 233.955 448.9 195.7 416.823 167.033C368.698 124.021 315.137 102.566 273.631 91.8391C232.114 81.1134 202.602 81.0994 202.327 81.0979L202.327 90.1603" fill="#4f4c4c"/>
<path d="M143.16 196.146L143.169 196.146C143.247 196.144 143.714 196.133 144.544 196.133C153.165 196.127 200.886 197.26 257.711 220.23C286.128 231.713 316.823 248.64 346.132 273.598C375.44 298.561 403.373 331.549 426.286 375.274L434.315 371.066C410.871 326.315 382.157 292.369 352.008 266.698C306.778 228.183 258.374 208.286 219.588 198.013C180.793 187.739 151.587 187.071 144.544 187.069C143.51 187.069 142.953 187.085 142.915 187.085L143.16 196.146" fill="#4f4c4c"/>
<path d="M139.305 236.513L139.231 235.859L139.304 236.515L139.305 236.513L139.231 235.859L139.304 236.515C139.405 236.502 143.339 236.069 150.247 236.069C168.493 236.067 207.429 239.1 251.473 260.786C295.518 282.488 344.78 322.754 383.991 397.854L392.026 393.662C352.018 316.951 301.136 275.109 255.475 252.653C209.812 230.18 169.475 227.008 150.247 227.005C142.725 227.005 138.422 227.491 138.271 227.51L139.305 236.513" fill="#4f4c4c"/>
<path d="M148.517 280.532L148.531 280.532C148.647 280.528 149.35 280.503 150.576 280.503C159.073 280.496 192.669 281.681 231.122 298.384C250.353 306.732 270.807 318.944 290.045 336.824C309.283 354.707 327.325 378.257 341.726 409.413L349.953 405.611C335.077 373.412 316.296 348.844 296.216 330.184C266.088 302.186 233.098 287.501 205.979 279.822C178.85 272.143 157.561 271.442 150.576 271.44C149.039 271.44 148.195 271.474 148.134 271.476L148.517 280.532" fill="#4f4c4c"/>
<path d="M158.046 311.941L157.982 311.335L158.042 311.941L158.046 311.941L157.982 311.335L158.042 311.941C158.137 311.932 159.909 311.761 163.018 311.761C172.6 311.76 194.799 313.384 219.861 326.146C232.398 332.529 245.67 341.69 258.519 354.88C271.365 368.071 283.796 385.296 294.596 407.857L302.771 403.943C291.581 380.56 278.576 362.48 265.012 348.557C244.666 327.662 223.082 316.157 204.659 309.928C186.228 303.695 170.957 302.699 163.018 302.699C159.35 302.699 157.243 302.912 157.105 302.926L158.046 311.941" fill="#4f4c4c"/>
<path d="M168.523 127.837L168.549 127.834C168.921 127.806 172.813 127.522 179.488 127.522C202.026 127.514 256.242 130.783 313.842 157.826C342.65 171.346 372.317 190.789 399.419 218.751C426.519 246.717 451.076 283.209 469.621 330.965L478.069 327.685C459.118 278.861 433.873 241.273 405.927 212.443C364.006 169.185 316.079 145.677 274.351 133.009C232.613 120.337 197.036 118.461 179.488 118.459C172.095 118.459 167.901 118.793 167.792 118.803L168.523 127.837" fill="#4f4c4c"/>
<path d="M155.207 159.767L155.229 159.765C155.555 159.741 159.037 159.495 165.056 159.495C186.03 159.487 237.764 162.504 294.152 188.122C322.352 200.929 351.725 219.371 379.107 245.921C406.487 272.474 431.89 307.141 452.123 352.516L460.402 348.825C439.723 302.438 413.62 266.76 385.416 239.414C343.106 198.383 296.124 176.128 255.716 164.151C215.301 152.17 181.426 150.433 165.056 150.431C158.372 150.431 154.606 150.722 154.5 150.731L155.207 159.767" fill="#4f4c4c"/>
<path d="M361.703 46.7647C361.703 46.7647 416.084 56.7723 453.665 100.44C453.665 100.44 467.288 303.526 253.72 389.302C253.72 389.302 199.12 366.265 178.726 330.764C178.726 330.764 320.915 262.976 361.703 46.7647" fill="#bdbcbc"/>
<path d="M454.142 100.152C453.349 112.718 448.585 165.164 421.105 224.37C407.368 253.974 387.967 285.267 360.567 314.188C333.162 343.108 297.764 369.672 251.895 389.849L255.545 398.147C302.53 377.485 338.971 350.164 367.145 320.421C409.417 275.802 433.096 225.794 446.377 184.528C459.655 143.254 462.553 110.674 463.187 100.727L454.142 100.152" fill="#4f4c4c"/>
<path d="M174.723 333.22C219.826 306.4 254.131 274.796 280.166 242.5C319.223 194.047 339.683 144.067 350.39 106.185C361.096 68.297 362.059 42.4822 362.07 42.2102L353.014 41.8776L353.009 41.9755C352.908 44.3678 350.597 89.5354 326.59 146.882C314.588 175.56 297.172 207.283 271.912 238.287C246.649 269.292 213.546 299.584 170.089 325.429L174.723 333.22" fill="#4f4c4c"/>
<path d="M430.339 77.4542L430.334 77.5786C430.239 80.5196 427.965 134.44 401.435 198.07C388.176 229.888 368.868 264.13 340.785 295.725C312.696 327.323 275.846 356.291 227.329 377.634L230.977 385.932C281.512 363.709 319.892 333.286 348.927 300.198C392.491 250.556 415.069 195 426.793 151.869C438.513 108.728 439.389 77.9657 439.398 77.7076L430.339 77.4542" fill="#4f4c4c"/>
<path d="M376.15 47.8529L376.146 47.9679C376.038 50.6882 373.59 100.965 348.453 162.276C335.889 192.934 317.664 226.349 291.257 258.024C264.849 289.7 230.27 319.648 184.875 343.435L189.082 351.463C236.315 326.72 272.248 295.359 299.504 262.278C340.395 212.649 361.789 159.201 372.99 118.156C384.187 77.1045 385.199 48.4249 385.208 48.1669L376.15 47.8529" fill="#4f4c4c"/>
<path d="M401.185 58.6252L401.185 58.633C401.196 58.7962 401.314 60.8123 401.314 64.4217C401.319 80.7124 398.884 129.399 373.272 186.707C347.642 244.023 298.964 310.009 205.943 361.401L210.325 369.335C305.092 317.023 355.269 249.271 381.547 190.405C407.846 131.53 410.373 81.5969 410.378 64.4217C410.378 60.3615 410.235 58.1278 410.23 58.0376L401.185 58.6252" fill="#4f4c4c"/>
</g>
</svg>
