<svg height="100%" stroke-miterlimit="10" style="fill-rule:nonzero;clip-rule:evenodd;stroke-linecap:round;stroke-linejoin:round;" viewBox="0 0 512 512" width="100%" xml:space="preserve" xmlns="http://www.w3.org/2000/svg" xmlns:xlink="http://www.w3.org/1999/xlink">
<g>
<path d="M489.792 275.375C446.279 275.375 411.867 288.393 390.43 312.148L293.17 256L390.414 199.845C411.848 223.605 446.259 236.622 489.792 236.622C500.127 236.442 508.684 228.371 508.661 217.993C508.645 207.732 500.327 199.426 490.074 199.426C490.059 199.426 490.035 199.426 490.035 199.426C461.819 199.074 438.85 192.694 423.835 180.554L470.72 153.489C479.622 148.355 482.649 136.982 477.519 128.08C472.396 119.179 461.012 116.108 452.114 121.274L405.127 148.402C401.916 129.337 407.645 106.232 422.081 81.3949C427.227 72.5168 424.215 61.1323 415.317 55.9747C406.439 50.7974 395.055 53.8364 389.905 62.7302C367.931 100.588 361.912 137.06 371.828 167.626L274.56 223.777L274.56 111.46C305.929 104.759 334.467 81.3871 356.284 43.5211C361.41 34.6195 358.36 23.2467 349.439 18.1243C340.56 12.9862 329.18 16.0526 324.05 24.9542C309.759 49.7831 292.645 66.2469 274.56 72.9985L274.56 18.5982C274.56 8.3259 266.246 1.13687e-13 255.975 1.13687e-13C245.7 1.13687e-13 237.374 8.3259 237.374 18.5982L237.374 72.9985C219.313 66.2469 202.198 49.7831 187.898 24.962C182.77 16.0722 171.395 12.994 162.497 18.1321C153.597 23.2624 150.538 34.6312 155.666 43.5328C177.474 81.3871 206.012 104.759 237.374 111.46L237.374 223.789L140.105 167.626C149.994 137.072 143.991 100.608 122.049 62.7576C116.892 53.8677 105.522 50.8483 96.6275 55.9864C87.7373 61.1441 84.712 72.5247 89.8599 81.4067C104.25 106.239 109.99 129.337 106.793 148.402L59.8459 121.297C50.9462 116.151 39.5723 119.194 34.4335 128.1C29.3008 137.001 32.3461 148.374 41.2348 153.512L88.1821 180.605C73.3287 192.847 50.593 199.426 22.0554 199.426C22.0124 199.426 21.9838 199.465 21.9121 199.426C11.6508 199.426 3.31588 207.744 3.31588 218.013C3.30139 228.348 11.7514 236.955 22.0554 236.622C65.5992 236.622 100.03 223.597 121.494 199.837L218.767 256L218.767 256L218.767 256.009L121.494 312.148C100.049 288.404 65.6192 275.375 22.0554 275.375C11.5458 275.141 3.30139 283.657 3.31588 293.98C3.31588 304.256 11.6508 312.573 21.9121 312.573C21.9646 312.53 22.003 312.573 22.0554 312.573C50.593 312.573 73.3381 319.172 88.1821 331.403L41.2348 358.488C32.3461 363.634 29.3008 374.995 34.4335 383.919C39.5614 392.798 50.9462 395.866 59.8459 390.7L106.784 363.616C109.971 382.666 104.236 405.755 89.8508 430.579C84.703 439.483 87.7279 450.867 96.6185 456.009C99.5576 457.707 102.763 458.514 105.923 458.514C112.342 458.514 118.588 455.206 122.04 449.233C143.966 411.367 149.983 374.918 140.096 344.36L237.374 288.213L237.374 400.508C206.012 407.208 177.474 430.622 155.666 468.464C150.538 477.364 153.597 488.747 162.497 493.877C171.395 498.98 182.77 495.931 187.898 487.033C202.198 462.189 219.313 445.72 237.374 438.976L237.374 493.389C237.374 503.683 245.7 512 255.975 512C266.246 512 274.56 503.683 274.56 493.389L274.56 438.976C292.645 445.739 309.759 462.228 324.05 487.051C327.484 493.025 333.738 496.376 340.196 496.376C343.345 496.356 346.533 495.568 349.439 493.877C358.36 488.747 361.41 477.364 356.284 468.483C334.467 430.622 305.929 407.208 274.56 400.508L274.56 288.222L371.843 344.36C361.912 374.918 367.931 411.409 389.905 449.271C393.363 455.206 399.594 458.557 406.012 458.557C409.181 458.557 412.392 457.725 415.317 456.009C424.195 450.867 427.227 439.501 422.081 430.603C407.669 405.755 401.916 382.646 405.147 363.573L452.134 390.7C455.055 392.396 458.267 393.205 461.415 393.205C467.834 393.205 474.088 389.873 477.519 383.919C482.669 374.995 479.622 363.634 470.74 358.488L423.753 331.36C438.568 319.13 461.294 312.573 489.792 312.573C489.874 312.573 489.996 312.591 490.074 312.573C500.327 312.573 508.661 304.266 508.684 294.005C508.684 283.619 500.006 275.405 489.792 275.375" fill="#0773e8"/>
</g>
</svg>
