<svg height="100%" stroke-miterlimit="10" style="fill-rule:nonzero;clip-rule:evenodd;stroke-linecap:round;stroke-linejoin:round;" viewBox="0 0 512 512" width="100%" xml:space="preserve" xmlns="http://www.w3.org/2000/svg" xmlns:xlink="http://www.w3.org/1999/xlink">
<g>
<path d="M149.963 205.597L49.7596 160.508L201.058 107.668L302.5 146.309L168.856 205.645C162.839 208.317 155.966 208.299 149.963 205.597" fill="#afaca8"/>
<path d="M149.963 205.597L151.655 201.832L60.8956 160.992L200.996 112.063L291.667 146.602L167.18 201.872C164.723 202.963 162.092 203.508 159.462 203.508C156.798 203.508 154.136 202.949 151.657 201.832L149.963 205.597L148.267 209.363C151.824 210.963 155.642 211.765 159.462 211.765C163.232 211.765 167.007 210.983 170.531 209.419L304.174 150.083C305.7 149.406 306.671 147.866 306.627 146.199C306.58 144.529 305.528 143.046 303.968 142.452L202.528 103.811C201.62 103.464 200.614 103.451 199.696 103.771L48.3979 156.611C46.7975 157.17 45.7079 158.637 45.6345 160.33C45.561 162.024 46.5194 163.578 48.0658 164.273L148.268 209.363L149.963 205.597" fill="#231f20"/>
<path d="M49.7596 160.508L4.13045 271.417L159.4 341.284L159.4 228.504C159.4 217.147 152.739 206.846 142.383 202.187L49.7596 160.508" fill="#969390"/>
<path d="M49.7596 160.508L45.9414 158.937L0.312271 269.845C-0.536707 271.907 0.402602 274.265 2.43645 275.18L157.706 345.049C158.976 345.62 160.471 345.508 161.641 344.752C162.811 343.994 163.529 342.677 163.529 341.284L163.529 228.504C163.527 215.522 155.914 203.748 144.076 198.422L51.453 156.743C50.4326 156.285 49.272 156.259 48.2321 156.673C47.1929 157.086 46.3667 157.904 45.9414 158.937L49.7596 160.508L48.0658 164.273L140.689 205.951C149.563 209.944 155.272 218.772 155.27 228.504L155.27 334.899L9.46641 269.29L53.5773 162.08L49.7596 160.508L48.0658 164.273L49.7596 160.508" fill="#231f20"/>
<path d="M302.5 146.309L359.511 312.345L159.4 341.176L159.4 229.534C159.4 217.562 166.45 206.712 177.394 201.854L302.5 146.309" fill="#636668"/>
<path d="M302.5 146.309L298.594 147.65L353.987 308.969L163.529 336.41L163.529 229.534C163.527 219.193 169.618 209.823 179.068 205.627L304.174 150.083L302.5 146.309L298.594 147.65L302.5 146.309L300.824 142.536L175.718 198.08C163.283 203.602 155.272 215.93 155.272 229.534L155.27 341.176C155.27 342.372 155.792 343.515 156.697 344.297C157.6 345.08 158.806 345.434 159.988 345.264L360.1 316.432C361.311 316.257 362.396 315.542 363.035 314.498C363.672 313.453 363.813 312.161 363.416 311.004L306.404 144.968C306.026 143.867 305.216 142.99 304.15 142.524C303.081 142.06 301.889 142.063 300.824 142.536L302.5 146.309" fill="#231f20"/>
<path d="M352.505 288.106L250.303 258.531L322.556 214.355L431.875 233.448L381.334 276.126C375.03 278.926 358.796 290.936 352.505 288.106" fill="#afaca8"/>
<path d="M352.505 288.106L353.653 284.141L260.446 257.167L323.38 218.69L422.458 235.994L378.67 272.972L381.334 276.126L379.658 272.353C377.909 273.136 375.962 274.264 373.739 275.562C370.431 277.502 366.603 279.807 363.053 281.574C361.283 282.456 359.583 283.201 358.122 283.695C356.667 284.195 355.44 284.415 354.771 284.407C354.563 284.407 354.411 284.388 354.317 284.372L354.221 284.349L354.201 284.342C354.045 284.271 353.818 284.189 353.653 284.141L352.505 288.106L350.81 291.871C352.141 292.467 353.493 292.662 354.771 292.664C356.15 292.66 357.475 292.439 358.794 292.105C361.099 291.514 363.411 290.561 365.738 289.452C369.218 287.785 372.717 285.743 375.798 283.929C377.337 283.024 378.768 282.177 380.009 281.472C381.246 280.769 382.311 280.207 383.008 279.9C383.362 279.743 383.702 279.53 383.997 279.281L434.537 236.602C435.764 235.567 436.279 233.919 435.859 232.37C435.44 230.819 434.165 229.656 432.583 229.381L323.266 210.287C322.275 210.114 321.26 210.307 320.403 210.832L248.149 255.009C246.757 255.859 245.994 257.463 246.211 259.079C246.429 260.698 247.588 262.042 249.155 262.496L351.358 292.072L352.505 288.106L350.81 291.871L352.505 288.106" fill="#231f20"/>
<path d="M250.303 258.531L188.06 337.973L366.638 404.33L364.861 310.784C364.861 298.891 362.231 288.121 351.383 283.239L250.303 258.531" fill="#969390"/>
<path d="M250.303 258.531L247.053 255.985L184.81 335.426C184.001 336.458 183.73 337.832 184.087 339.094C184.444 340.356 185.393 341.386 186.622 341.842L365.2 408.201C366.48 408.677 367.911 408.489 369.026 407.698C370.141 406.908 370.791 405.618 370.765 404.253L368.99 310.705L364.861 310.784L368.99 310.784C368.981 304.539 368.327 298.359 365.996 292.782C364.827 290.001 363.218 287.379 361.071 285.1C358.926 282.818 356.251 280.899 353.077 279.474C352.854 279.375 352.6 279.287 352.363 279.229L251.284 254.52C249.712 254.137 248.05 254.71 247.053 255.985L250.303 258.531L249.323 262.541L350.403 287.25L351.383 283.239L349.688 287.004C351.939 288.02 353.66 289.278 355.059 290.761C357.148 292.981 358.558 295.781 359.466 299.19C360.373 302.587 360.736 306.552 360.733 310.784L360.733 310.862L362.394 398.349L194.795 336.07L253.553 261.077L250.303 258.531L249.323 262.541L250.303 258.531" fill="#231f20"/>
<path d="M431.875 233.448L507.873 337.898L366.638 404.218L365.236 299.883C365.236 287.344 367.252 282.337 378.713 277.249L431.875 233.448" fill="#636668"/>
<path d="M431.875 233.448L428.535 235.877L501.593 336.287L370.677 397.759L369.365 299.827L365.236 299.883L369.365 299.883C369.363 296.858 369.492 294.391 369.807 292.421C370.043 290.941 370.375 289.749 370.808 288.745C371.467 287.244 372.304 286.101 373.77 284.857C375.232 283.627 377.372 282.359 380.388 281.023C380.741 280.866 381.04 280.681 381.339 280.437L434.499 236.634L431.875 233.448L428.535 235.877L431.875 233.448L429.249 230.261L376.087 274.064L378.713 277.249L377.039 273.476C373.987 274.833 371.429 276.232 369.26 277.893C367.637 279.135 366.238 280.537 365.111 282.121C363.41 284.497 362.384 287.219 361.826 290.139C361.263 293.068 361.111 296.234 361.108 299.883L361.108 299.938L362.51 404.274C362.528 405.681 363.254 406.971 364.448 407.719C365.641 408.465 367.117 408.553 368.392 407.955L509.628 341.635C510.735 341.115 511.567 340.111 511.871 338.925C512.177 337.74 511.932 336.46 511.212 335.469L435.212 231.019C434.545 230.101 433.519 229.495 432.393 229.353C431.268 229.209 430.124 229.541 429.249 230.261L431.875 233.448" fill="#231f20"/>
</g>
</svg>
