<svg height="100%" stroke-miterlimit="10" style="fill-rule:nonzero;clip-rule:evenodd;stroke-linecap:round;stroke-linejoin:round;" viewBox="0 0 512 512" width="100%" xml:space="preserve" xmlns="http://www.w3.org/2000/svg" xmlns:xlink="http://www.w3.org/1999/xlink">
<g>
<path d="M434.685 97.325C416.582 41.6542 343.481 0 256.002 0C168.524 0 95.4217 41.6542 77.3168 97.325L434.685 97.325" fill="#fabd4c"/>
<path d="M469.459 432.858C460.422 427.015 450.192 424.093 440.101 422.868C475.047 317.414 479.737 211.94 454.228 106.464C394.624 139.104 327.15 156.817 258.346 156.817C187.943 156.817 118.923 138.293 58.3121 104.186C32.1779 210.422 36.6837 316.654 71.8816 422.868C61.7914 424.093 51.5614 427.015 42.5419 432.858C9.6051 454.086 4.98945 505.539 4.98945 505.539C4.98945 505.539 53.7546 522.566 86.6931 501.337C97.6406 494.266 105.468 483.841 111.013 473.107C207.683 524.905 304.318 524.905 400.972 473.107C406.534 483.841 414.341 494.266 425.308 501.337C458.247 522.566 507.011 505.539 507.011 505.539C507.011 505.539 502.396 454.086 469.459 432.858" fill="#bf5b59"/>
<path d="M289.448 348.498C272.935 359.127 248.508 350.579 248.508 350.579C248.508 350.579 250.82 324.797 267.306 314.153C283.807 303.509 308.259 312.054 308.259 312.054C308.259 312.054 305.947 337.832 289.448 348.498" fill="#fabd4c"/>
<path d="M297.347 403.427C277.108 416.489 247.095 405.995 247.095 405.995C247.095 405.995 249.935 374.352 270.199 361.302C290.438 348.246 320.453 358.715 320.453 358.715C320.453 358.715 317.612 390.356 297.347 403.427" fill="#fabd4c"/>
<path d="M281.904 264.146C268.971 272.472 249.801 265.784 249.801 265.784C249.801 265.784 251.612 245.552 264.544 237.222C277.477 228.873 296.648 235.565 296.648 235.565C296.648 235.565 294.837 255.793 281.904 264.146" fill="#fabd4c"/>
<path d="M284.136 303.614C269.974 312.751 248.969 305.406 248.969 305.406C248.969 305.406 250.951 283.248 265.126 274.106C279.29 264.983 300.294 272.319 300.294 272.319C300.294 272.319 298.311 294.472 284.136 303.614" fill="#fabd4c"/>
<path d="M206.616 348.498C223.129 359.127 247.582 350.579 247.582 350.579C247.582 350.579 245.271 324.797 228.771 314.153C212.257 303.509 187.805 312.054 187.805 312.054C187.805 312.054 190.116 337.832 206.616 348.498" fill="#fabd4c"/>
<path d="M198.703 403.427C218.955 416.489 248.969 405.995 248.969 405.995C248.969 405.995 246.143 374.352 225.865 361.302C205.626 348.246 175.611 358.715 175.611 358.715C175.611 358.715 178.452 390.356 198.703 403.427" fill="#fabd4c"/>
<path d="M214.16 264.146C227.106 272.472 246.274 265.784 246.274 265.784C246.274 265.784 244.465 245.552 231.532 237.222C218.585 228.873 199.416 235.565 199.416 235.565C199.416 235.565 201.227 255.793 214.16 264.146" fill="#fabd4c"/>
<path d="M211.926 303.614C226.103 312.751 247.095 305.406 247.095 305.406C247.095 305.406 245.113 283.248 230.938 274.106C216.776 264.983 195.77 272.319 195.77 272.319C195.77 272.319 197.766 294.472 211.926 303.614" fill="#fabd4c"/>
<path d="M248.018 453.804C246.156 453.804 244.636 452.292 244.636 450.424L244.636 190.271C244.636 188.402 246.156 186.889 248.018 186.889C249.895 186.889 251.4 188.402 251.4 190.271L251.4 450.424C251.4 452.292 249.895 453.804 248.018 453.804" fill="#511a14"/>
<path d="M485.362 143.022C334.318 176.788 177.685 176.788 26.6403 143.022C31.9444 119.303 37.2442 95.5807 42.5463 71.8603C183.113 103.281 328.889 103.281 469.456 71.8603C474.757 95.5807 480.061 119.303 485.362 143.022" fill="#af5250"/>
</g>
</svg>
