<svg height="100%" stroke-miterlimit="10" style="fill-rule:nonzero;clip-rule:evenodd;stroke-linecap:round;stroke-linejoin:round;" viewBox="0 0 512 512" width="100%" xml:space="preserve" xmlns="http://www.w3.org/2000/svg" xmlns:xlink="http://www.w3.org/1999/xlink">
<g>
<path d="M245.333 512L10.6667 512C4.775 512 0 507.225 0 501.333L0 458.667C0 452.775 4.775 448 10.6667 448L245.333 448C251.226 448 256 452.775 256 458.667L256 501.333C256 507.225 251.226 512 245.333 512ZM21.3333 490.667L234.667 490.667L234.667 469.333L21.3333 469.333L21.3333 490.667" fill="#100f0d"/>
<path d="M224 469.333L32 469.333C26.1084 469.333 21.3333 464.558 21.3333 458.667L21.3333 352C21.3333 346.108 26.1084 341.333 32 341.333L224 341.333C229.892 341.333 234.667 346.108 234.667 352L234.667 458.667C234.667 464.558 229.892 469.333 224 469.333ZM42.6667 448L213.333 448L213.333 362.667L42.6667 362.667L42.6667 448" fill="#100f0d"/>
<path d="M181.333 362.667L74.6667 362.667C68.775 362.667 64 357.892 64 352L64 320C64 284.717 92.7166 256 128 256C163.283 256 192 284.717 192 320L192 352C192 357.892 187.225 362.667 181.333 362.667ZM85.3333 341.333L170.667 341.333L170.667 320C170.667 296.467 151.533 277.333 128 277.333C104.467 277.333 85.3333 296.467 85.3333 320L85.3333 341.333" fill="#100f0d"/>
<path d="M96 288C94.0582 288 92.0751 287.467 90.2999 286.357C85.3333 283.2 83.8417 276.608 87.0001 271.616L218.259 64.0256C221.399 59.0336 227.966 57.5744 232.958 60.7168C237.933 63.8507 239.424 70.4661 236.267 75.4325L105 283.034C103 286.251 99.5166 288 96 288" fill="#100f0d"/>
<path d="M180.633 322.092C179.175 322.092 177.683 321.792 176.258 321.15C170.883 318.742 168.492 312.425 170.9 307.05L268.542 90.0245C270.976 84.6507 277.308 82.2592 282.641 84.6741C288.026 87.0827 290.409 93.3995 288 98.7755L190.375 315.8C188.583 319.742 184.7 322.092 180.633 322.092" fill="#100f0d"/>
<path d="M266.667 106.667C237.267 106.667 213.333 82.7499 213.333 53.3333C213.333 23.9168 237.267 0 266.667 0C296.066 0 320 23.9168 320 53.3333C320 82.7499 296.066 106.667 266.667 106.667ZM266.667 21.3333C249.024 21.3333 234.667 35.6907 234.667 53.3333C234.667 70.976 249.024 85.3333 266.667 85.3333C284.309 85.3333 298.667 70.976 298.667 53.3333C298.667 35.6907 284.309 21.3333 266.667 21.3333" fill="#100f0d"/>
<path d="M480 234.667C462.357 234.667 448 220.309 448 202.667C448 185.024 462.357 170.667 480 170.667C497.643 170.667 512 185.024 512 202.667C512 220.309 497.643 234.667 480 234.667ZM480 192C474.108 192 469.333 196.8 469.333 202.667C469.333 208.533 474.108 213.333 480 213.333C485.892 213.333 490.667 208.533 490.667 202.667C490.667 196.8 485.892 192 480 192" fill="#100f0d"/>
<path d="M471.575 193.726C469.25 193.726 466.884 192.958 464.917 191.401L302.658 61.6747C298.05 57.984 297.299 51.2832 300.966 46.6752C304.659 42.1077 311.383 41.3675 315.966 45.0176L478.234 174.741C482.833 178.434 483.584 185.133 479.917 189.741C477.824 192.367 474.709 193.726 471.575 193.726" fill="#100f0d"/>
<path d="M437.333 288C436.35 288 435.366 287.874 434.391 287.575C428.717 285.975 425.451 280.043 427.051 274.391L446.182 207.441L277.333 101.783C272.341 98.6667 270.825 92.0747 273.941 87.0827C277.058 82.1077 283.667 80.576 288.642 83.7077L464.301 193.626C468.333 196.141 470.208 201.024 468.909 205.609L447.575 280.275C446.251 284.949 441.984 288 437.333 288" fill="#100f0d"/>
<path d="M74.6667 426.667C68.775 426.667 64 421.892 64 416L64 394.667C64 388.775 68.775 384 74.6667 384C80.5583 384 85.3333 388.775 85.3333 394.667L85.3333 416C85.3333 421.892 80.5583 426.667 74.6667 426.667" fill="#100f0d"/>
<path d="M117.333 426.667C111.442 426.667 106.667 421.892 106.667 416L106.667 394.667C106.667 388.775 111.442 384 117.333 384C123.225 384 128 388.775 128 394.667L128 416C128 421.892 123.225 426.667 117.333 426.667" fill="#100f0d"/>
<path d="M445.333 291.625C443.034 291.625 440.683 290.884 438.716 289.342C434.108 285.7 433.325 278.999 436.949 274.366L488.066 209.626C491.708 205.018 498.434 204.224 503.059 207.851C507.667 211.501 508.459 218.199 504.834 222.825L453.717 287.575C451.607 290.217 448.467 291.625 445.333 291.625" fill="#100f0d"/>
<path d="M437.333 309.333C425.574 309.333 416 299.775 416 288C416 276.224 425.574 266.667 437.333 266.667C449.092 266.667 458.667 276.224 458.667 288C458.667 299.775 449.092 309.333 437.333 309.333ZM437.333 287.974C437.333 287.974 437.333 288 437.333 287.974L448 288L437.333 287.974" fill="#100f0d"/>
<path d="M437.333 362.667C434.601 362.667 431.874 361.625 429.783 359.55C425.626 355.392 425.626 348.633 429.783 344.467L454.251 320L432.917 298.667L405.333 298.667L405.333 330.667C405.333 336.558 400.559 341.333 394.667 341.333C388.774 341.333 384 336.558 384 330.667L384 288C384 282.108 388.774 277.333 394.667 277.333L437.333 277.333C440.166 277.333 442.884 278.466 444.883 280.45L476.883 312.45C481.041 316.608 481.041 323.367 476.883 327.533L444.883 359.533C442.793 361.625 440.066 362.667 437.333 362.667" fill="#100f0d"/>
</g>
</svg>
