<svg height="100%" stroke-miterlimit="10" style="fill-rule:nonzero;clip-rule:evenodd;stroke-linecap:round;stroke-linejoin:round;" viewBox="0 0 512 512" width="100%" xml:space="preserve" xmlns="http://www.w3.org/2000/svg" xmlns:xlink="http://www.w3.org/1999/xlink">
<g>
<path d="M258.951 5.33966L506.466 86.563L503.998 94.1561L506.493 86.5561C510.69 87.9325 512.978 92.4533 511.598 96.6505C510.719 99.3338 508.555 101.235 506.012 101.899L258.489 183.125L258.494 183.139C256.644 183.747 254.73 183.642 253.049 182.974L5.53325 101.75L8.00178 94.1561L5.5072 101.757C1.31017 100.381-0.976603 95.8588 0.400889 91.663C1.28088 88.9797 3.44504 87.0783 5.98735 86.4144L253.51 5.18827L253.505 5.17299C255.356 4.56605 257.27 4.67161 258.951 5.33966ZM478.389 94.1561L256.001 21.1799L33.611 94.1561L256.001 167.135L478.389 94.1561" fill="#000000"/>
<path d="M424.822 128.543L346.335 154.299L346.341 154.314C344.411 154.946 342.416 154.804 340.686 154.061L107.583 68.0756L110.333 60.5756L107.565 68.0811C103.42 66.552 101.299 61.9534 102.827 57.8076C103.767 55.2617 105.865 53.4798 108.306 52.8367L186.792 27.0826L186.788 27.0674C188.717 26.434 190.713 26.5757 192.442 27.3201L425.544 113.305L422.796 120.805L425.564 113.299C429.708 114.828 431.829 119.428 430.3 123.573C429.361 126.12 427.263 127.902 424.822 128.543ZM344.004 138.256L398.524 120.366L189.124 43.1243L134.605 61.0159L344.004 138.256" fill="#000000"/>
<path d="M10.5956 406.564C6.41921 405.131 1.8717 407.357 0.439408 411.534C-0.992879 415.71 1.23205 420.258 5.40847 421.69L253.405 506.788L253.403 506.791C255.248 507.425 257.163 507.345 258.853 506.698L506.591 421.69C510.768 420.258 512.993 415.71 511.561 411.534C510.129 407.357 505.582 405.131 501.405 406.564L256.001 490.772L10.5956 406.564" fill="#000000"/>
<path d="M511.997 94.1574C511.997 89.7394 508.416 86.1575 503.998 86.1575C499.58 86.1575 495.998 89.7394 495.998 94.1574L495.998 414.127C495.998 418.544 499.58 422.127 503.998 422.127C508.416 422.127 511.997 418.544 511.997 414.127L511.997 94.1574" fill="#000000"/>
<path d="M16.002 94.1574C16.002 89.7394 12.4196 86.1575 8.00178 86.1575C3.58393 86.1575 0.00212671 89.7394 0.00212671 94.1574L0.00212671 414.127C0.00212671 418.544 3.58393 422.127 8.00178 422.127C12.4196 422.127 16.002 418.544 16.002 414.127L16.002 94.1574" fill="#000000"/>
<path d="M264.001 175.539C264.001 171.12 260.419 167.539 256.001 167.539C251.581 167.539 248.001 171.12 248.001 175.539L248.001 499.225C248.001 503.642 251.581 507.224 256.001 507.224C260.419 507.224 264.001 503.642 264.001 499.225L264.001 175.539" fill="#000000"/>
<path d="M51.8585 370.701C47.6826 369.269 43.1345 371.493 41.7023 375.669C40.27 379.846 42.495 384.394 46.6713 385.825L82.344 398.067C86.5204 399.499 91.0679 397.275 92.5002 393.099C93.9324 388.921 91.7081 384.375 87.5316 382.942L51.8585 370.701" fill="#000000"/>
<path d="M341.852 138.963L420.308 113.248L420.303 113.232C424.503 111.856 429.021 114.143 430.397 118.342C430.685 119.22 430.813 120.11 430.796 120.984L430.796 198.049C430.796 201.77 428.254 204.897 424.813 205.792L346.472 233.122L346.482 233.146C342.31 234.601 337.748 232.399 336.292 228.228C335.968 227.301 335.827 226.356 335.845 225.428L335.845 146.713C335.845 142.982 338.398 139.849 341.852 138.963ZM414.795 131.86L351.846 152.493L351.846 214.354L414.795 192.392L414.795 131.86" fill="#000000"/>
<path d="M295.945 440.113L360.331 418.028L360.331 394.093L295.945 416.176L295.945 440.113ZM368.332 423.737L370.925 431.298L290.846 458.765C289.948 459.115 288.967 459.308 287.944 459.308C283.525 459.308 279.945 455.727 279.945 451.308L279.945 410.632C279.874 407.248 281.974 404.059 285.349 402.902L287.944 410.469L285.35 402.906L365.429 375.439C366.329 375.089 367.309 374.897 368.332 374.897C372.75 374.897 376.332 378.479 376.332 382.896L376.332 423.573C376.403 426.958 374.302 430.147 370.927 431.304L368.332 423.737" fill="#000000"/>
<path d="M344.004 138.256L398.524 120.366L189.124 43.1243L134.605 61.0159L344.004 138.256" fill="#c3c7c9"/>
<path d="M319.574 146.273L110.175 69.0311L33.611 94.1561L256.001 167.135L319.574 146.273" fill="#ffa145"/>
<path d="M248.001 488.027L248.001 181.317L16.002 105.185L16.002 408.42L248.001 488.027ZM41.7023 375.669C43.1345 371.493 47.6826 369.269 51.8585 370.701L87.5316 382.942C91.7081 384.375 93.9324 388.921 92.5002 393.099C91.0679 397.275 86.5204 399.499 82.344 398.067L46.6713 385.825C42.495 384.394 40.27 379.846 41.7023 375.669" fill="#ffa64d"/>
<path d="M414.795 192.392L414.795 131.86L351.846 152.493L351.846 214.354L414.795 192.392" fill="#c3c7c9"/>
<path d="M495.998 408.42L495.998 105.185L430.796 126.582L430.796 198.049C430.796 201.77 428.254 204.897 424.813 205.792L346.472 233.122L346.482 233.146C342.31 234.601 337.748 232.399 336.292 228.228C335.968 227.301 335.827 226.356 335.845 225.428L335.845 157.741L264.001 181.317L264.001 488.027L495.998 408.42ZM285.35 402.906L365.429 375.439C366.329 375.089 367.309 374.897 368.332 374.897C372.75 374.897 376.332 378.479 376.332 382.896L376.332 423.573C376.403 426.958 374.302 430.147 370.927 431.304L370.925 431.298L290.846 458.765C289.948 459.115 288.967 459.308 287.944 459.308C283.525 459.308 279.945 455.727 279.945 451.308L279.945 410.632C279.874 407.248 281.974 404.059 285.349 402.902L285.35 402.906" fill="#ffbb68"/>
<path d="M360.331 418.028L360.331 394.093L295.945 416.176L295.945 440.113L360.331 418.028" fill="#c3c7c9"/>
<path d="M478.389 94.1561L256.001 21.1799L213.555 35.1076L422.953 112.348L478.389 94.1561" fill="#ffa145"/>
</g>
</svg>
