<svg height="100%" stroke-miterlimit="10" style="fill-rule:nonzero;clip-rule:evenodd;stroke-linecap:round;stroke-linejoin:round;" viewBox="0 0 512 512" width="100%" xml:space="preserve" xmlns="http://www.w3.org/2000/svg" xmlns:xlink="http://www.w3.org/1999/xlink">
<g>
<path d="M26.0292 462.526C27.2471 490.038 49.898 512 77.7137 512L319.089 512C346.931 512 369.566 490.038 370.808 462.526L26.0292 462.526" fill="#bdbcbc"/>
<path d="M451.679 460.166C451.679 488.801 428.465 512 399.853 512L68.4221 512C68.4221 512 106.651 497.029 106.651 460.166L106.651 51.8259C106.651 23.2141 129.864 0 158.477 0L399.853 0C428.465 0 451.679 23.2141 451.679 51.8259L451.679 460.166" fill="#d7d7d7"/>
<path d="M485.971 49.4876C484.729 21.9539 468.839 1.1724e-13 441.011 1.1724e-13L151.316 1.1724e-13C151.316 1.1724e-13 185.209 14.5762 161.94 49.4876L485.971 49.4876" fill="#bdbcbc"/>
<path d="M369.221 425.089L337.257 423.847L324.489 455.278L264.948 367.044L309.677 336.851L369.221 425.089" fill="#f0402f"/>
<path d="M198.667 425.089L232.317 424.695L243.386 455.278L302.94 367.044L258.194 336.851L198.667 425.089" fill="#f0402f"/>
<path d="M363.607 323.737C363.607 330.415 352.865 335.595 351.199 341.756C349.506 348.136 356.162 357.988 352.939 363.557C349.653 369.231 337.767 368.374 333.173 372.96C328.578 377.562 329.452 389.448 323.77 392.717C318.193 395.956 308.347 389.297 301.971 390.994C295.816 392.642 290.623 403.393 283.936 403.393C277.265 403.393 272.086 392.642 265.917 390.994C259.532 389.297 249.687 395.956 244.102 392.717C238.436 389.448 239.315 377.562 234.715 372.96C230.113 368.374 218.227 369.231 214.962 363.557C211.725 357.988 218.381 348.136 216.681 341.756C215.022 335.595 204.282 330.415 204.282 323.737C204.282 317.052 215.022 311.856 216.681 305.712C218.381 299.328 211.725 289.48 214.962 283.88C218.227 278.231 230.113 279.097 234.715 274.498C239.315 269.903 238.436 258.003 244.116 254.735C249.687 251.505 259.532 258.168 265.917 256.459C272.086 254.817 277.265 244.068 283.936 244.068C290.623 244.068 295.816 254.817 301.971 256.459C308.347 258.168 318.193 251.505 323.786 254.735C329.452 258.003 328.578 269.903 333.173 274.498C337.767 279.097 349.653 278.231 352.939 283.88C356.162 289.48 349.506 299.328 351.199 305.712C352.865 311.856 363.607 317.052 363.607 323.737" fill="#e37c10"/>
<path d="M339.764 323.737C339.764 354.563 314.776 379.56 283.936 379.56C253.116 379.56 228.115 354.563 228.115 323.737C228.115 292.909 253.116 267.902 283.936 267.902C314.776 267.902 339.764 292.909 339.764 323.737" fill="#fbc108"/>
<path d="M401.739 144.49L166.133 144.49L166.133 130.808L401.739 130.808L401.739 144.49" fill="#393536"/>
<path d="M380.974 169.787L186.92 169.787L186.92 156.115L380.974 156.115L380.974 169.787" fill="#393536"/>
<path d="M354.456 195.071L213.432 195.071L213.432 181.398L354.456 181.398L354.456 195.071" fill="#393536"/>
</g>
</svg>
