<svg height="100%" stroke-miterlimit="10" style="fill-rule:nonzero;clip-rule:evenodd;stroke-linecap:round;stroke-linejoin:round;" viewBox="0 0 512 512" width="100%" xml:space="preserve" xmlns="http://www.w3.org/2000/svg" xmlns:xlink="http://www.w3.org/1999/xlink">
<g>
<path d="M458.14 49.185C424.378 16.292 378.67-1.43519 331.561 0.0909896L331.561 0.0909896C254.718 0.0909896 169.72 39.5797 104.234 105.69C-8.63725 219.712-33.8095 379.977 48.3111 462.815C82.0716 495.708 127.772 513.435 174.89 511.909L174.89 511.909C251.734 511.909 336.73 472.42 402.218 406.317C515.089 292.286 540.253 132.03 458.14 49.185" fill="#fab819"/>
<path d="M159.306 298.949C153.411 298.949 148.634 294.171 148.634 288.275C148.634 270.591 134.301 256.257 116.616 256.257C110.721 256.257 105.943 251.48 105.943 245.585C105.943 239.691 110.721 234.912 116.616 234.912C146.082 234.912 169.979 258.802 169.979 288.275L169.979 288.275C169.979 294.171 165.201 298.949 159.306 298.949L159.306 298.949" fill="#f7921d"/>
<path d="M351.414 341.639C345.518 341.639 340.741 336.861 340.741 330.967C340.741 313.282 326.399 298.949 308.723 298.949C302.828 298.949 298.051 294.171 298.051 288.275C298.051 282.382 302.828 277.602 308.723 277.602C338.19 277.602 362.086 301.492 362.086 330.967C362.086 336.861 357.309 341.639 351.414 341.639" fill="#f7921d"/>
<path d="M287.378 170.876C281.483 170.876 276.705 166.099 276.705 160.204C276.705 142.519 262.364 128.186 244.688 128.186C238.792 128.186 234.015 123.409 234.015 117.513C234.015 111.62 238.792 106.841 244.688 106.841C274.155 106.841 298.051 130.73 298.051 160.204C298.051 166.099 293.274 170.876 287.378 170.876" fill="#f7921d"/>
<path d="M436.795 170.876C430.899 170.876 426.122 166.099 426.122 160.204C426.122 142.519 411.78 128.186 394.104 128.186C388.209 128.186 383.432 123.409 383.432 117.513C383.432 111.62 388.209 106.841 394.104 106.841C423.571 106.841 447.467 130.73 447.467 160.204C447.467 166.099 442.69 170.876 436.795 170.876" fill="#f7921d"/>
<path d="M159.306 469.711C153.411 469.711 148.634 464.933 148.634 459.038C148.634 441.353 134.301 427.02 116.616 427.02C110.721 427.02 105.943 422.242 105.943 416.347C105.943 410.453 110.721 405.675 116.616 405.675C146.082 405.675 169.979 429.563 169.979 459.038L169.979 459.038C169.979 464.933 165.201 469.711 159.306 469.711L159.306 469.711" fill="#f7921d"/>
<path d="M174.823 511.826L174.823 511.826C127.714 513.352 82.005 495.625 48.2445 462.732C-33.8095 379.977-8.63725 219.712 104.301 105.75C169.787 39.5797 254.784 0.15716 331.627 0.15716L331.627 0.15716C378.738-1.36902 424.438 16.3582 458.198 49.2512C540.236 132.09 515.063 292.271 402.126 406.317C336.639 472.354 251.665 511.826 174.823 511.826ZM331.627 21.528C250.733 25.9294 174.681 61.5076 119.476 120.8C14.7341 226.543-10.4299 373.232 63.4029 447.79C93.1946 476.564 133.409 491.973 174.798 490.481L174.798 490.481C255.693 486.078 331.736 450.492 386.949 391.2C491.716 285.457 516.856 138.752 443.023 64.2185C413.232 35.443 373.017 20.0274 331.627 21.528" fill="#040606"/>
<path d="M159.306 298.949C153.411 298.949 148.634 294.171 148.634 288.275C148.634 270.591 134.301 256.257 116.616 256.257C110.721 256.257 105.943 251.48 105.943 245.585C105.943 239.691 110.721 234.912 116.616 234.912C146.082 234.912 169.979 258.802 169.979 288.275L169.979 288.275C169.979 294.171 165.201 298.949 159.306 298.949L159.306 298.949" fill="#040606"/>
<path d="M351.414 341.639C345.518 341.639 340.741 336.861 340.741 330.967C340.741 313.282 326.399 298.949 308.723 298.949C302.828 298.949 298.051 294.171 298.051 288.275C298.051 282.382 302.828 277.602 308.723 277.602C338.19 277.602 362.086 301.492 362.086 330.967C362.086 336.861 357.309 341.639 351.414 341.639" fill="#040606"/>
<path d="M287.378 170.876C281.483 170.876 276.705 166.099 276.705 160.204C276.705 142.519 262.364 128.186 244.688 128.186C238.792 128.186 234.015 123.409 234.015 117.513C234.015 111.62 238.792 106.841 244.688 106.841C274.155 106.841 298.051 130.73 298.051 160.204C298.051 166.099 293.274 170.876 287.378 170.876" fill="#040606"/>
<path d="M436.795 170.876C430.899 170.876 426.122 166.099 426.122 160.204C426.122 142.519 411.78 128.186 394.104 128.186C388.209 128.186 383.432 123.409 383.432 117.513C383.432 111.62 388.209 106.841 394.104 106.841C423.571 106.841 447.467 130.73 447.467 160.204C447.467 166.099 442.69 170.876 436.795 170.876" fill="#040606"/>
<path d="M159.306 469.711C153.411 469.711 148.634 464.933 148.634 459.038C148.634 441.353 134.301 427.02 116.616 427.02C110.721 427.02 105.943 422.242 105.943 416.347C105.943 410.453 110.721 405.675 116.616 405.675C146.082 405.675 169.979 429.563 169.979 459.038L169.979 459.038C169.979 464.933 165.201 469.711 159.306 469.711L159.306 469.711" fill="#040606"/>
</g>
</svg>
