<svg height="100%" stroke-miterlimit="10" style="fill-rule:nonzero;clip-rule:evenodd;stroke-linecap:round;stroke-linejoin:round;" viewBox="0 0 512 512" width="100%" xml:space="preserve" xmlns="http://www.w3.org/2000/svg" xmlns:xlink="http://www.w3.org/1999/xlink">
<g>
<path d="M120 296C120 366.694 94.9248 424 64 424C33.0752 424 8 366.694 8 296C8 225.306 33.0752 168 64 168C94.9248 168 120 225.306 120 296" fill="#c2b59b"/>
<path d="M120 296L112 296C112.019 330.387 105.837 361.494 96.2688 383.299C91.512 394.206 85.9008 402.738 80.2368 408.187C74.512 413.682 69.1632 415.987 64 416C58.8368 415.987 53.488 413.682 47.7632 408.187C39.232 400.026 30.9744 384.875 25.2368 365.299C19.4432 345.731 15.9936 321.794 16 296C15.9808 261.613 22.1632 230.506 31.7312 208.694C36.488 197.794 42.1008 189.262 47.7632 183.813C53.488 178.318 58.8368 176.006 64 176C69.1632 176.006 74.512 178.318 80.2368 183.813C88.768 191.974 97.0256 207.125 102.763 226.699C108.55 246.269 112.006 270.206 112 296L120 296L128 296C127.981 259.694 121.626 226.8 110.925 202.282C105.55 190.026 99.0944 179.806 91.3568 172.306C83.688 164.843 74.3008 159.987 64 160C53.7008 159.987 44.312 164.843 36.6432 172.306C25.0752 183.574 16.2256 200.882 9.8944 222.168C3.6064 243.456 0.0064 268.774 1.42109e-14 296C0.0192 332.306 6.368 365.194 17.0752 389.712C22.4496 401.974 28.9056 412.194 36.6432 419.694C44.312 427.157 53.7008 432.006 64 432C74.3008 432.006 83.688 427.157 91.3568 419.694C102.925 408.426 111.774 391.118 118.106 369.832C124.394 348.544 127.994 323.226 128 296L120 296" fill="#414042"/>
<path d="M448 168L384 168C384 176.837 359.763 184 320 184C280.237 184 256 176.837 256 168L64 168C94.9248 168 120 225.306 120 296C120 366.694 94.9248 424 64 424L448 424C478.925 424 504 366.694 504 296C504 225.306 478.925 168 448 168" fill="#a97c50"/>
<path d="M448 168L448 160L384 160C381.894 160 379.832 160.85 378.344 162.344C376.85 163.832 376 165.894 376 168L378.344 168L376.363 166.587L376 168L378.344 168L376.363 166.587L375.475 167.35C373.194 169.088 366.506 171.662 356.963 173.282C347.387 174.968 334.85 176.006 320 176C300.619 176.013 285.118 174.219 275.118 171.574C270.138 170.288 266.538 168.718 264.819 167.557L263.637 166.587L261.65 168L264 168L263.637 166.587L261.65 168L264 168C264 165.894 263.15 163.832 261.656 162.344C260.168 160.85 258.106 160 256 160L64 160C61.8944 160 59.832 160.85 58.344 162.344C56.8496 163.832 56 165.894 56 168C56 170.106 56.8496 172.168 58.344 173.656C59.832 175.15 61.8944 176 64 176C69.1632 176.006 74.512 178.318 80.2368 183.813C88.768 191.974 97.0256 207.125 102.763 226.699C108.55 246.269 112.006 270.206 112 296C112.019 330.387 105.837 361.494 96.2688 383.299C91.512 394.206 85.9008 402.738 80.2368 408.187C74.512 413.682 69.1632 415.987 64 416C61.8944 416 59.832 416.85 58.344 418.344C56.8496 419.832 56 421.894 56 424C56 426.106 56.8496 428.168 58.344 429.656C59.832 431.15 61.8944 432 64 432L448 432C458.301 432.006 467.688 427.157 475.357 419.694C486.925 408.426 495.774 391.118 502.106 369.832C508.394 348.544 511.994 323.226 512 296C511.981 259.694 505.626 226.8 494.925 202.282C489.55 190.026 483.094 179.806 475.357 172.306C467.688 164.843 458.301 159.987 448 160L448 168L448 176C453.163 176.006 458.512 178.318 464.237 183.813C472.768 191.974 481.026 207.125 486.763 226.699C492.55 246.269 496.006 270.206 496 296C496.019 330.387 489.837 361.494 480.269 383.299C475.512 394.206 469.901 402.738 464.237 408.187C458.512 413.682 453.163 415.987 448 416L64 416C61.8944 416 59.832 416.85 58.344 418.344C56.8496 419.832 56 421.894 56 424C56 426.106 56.8496 428.168 58.344 429.656C59.832 431.15 61.8944 432 64 432C74.3008 432.006 83.688 427.157 91.3568 419.694C102.925 408.426 111.774 391.118 118.106 369.832C124.394 348.544 127.994 323.226 128 296C127.981 259.694 121.626 226.8 110.925 202.282C105.55 190.026 99.0944 179.806 91.3568 172.306C83.688 164.843 74.3008 159.987 64 160C61.8944 160 59.832 160.85 58.344 162.344C56.8496 163.832 56 165.894 56 168C56 170.106 56.8496 172.168 58.344 173.656C59.832 175.15 61.8944 176 64 176L256 176L256 168L248 168C247.981 170.968 249.094 173.774 250.6 175.856C253.288 179.531 256.819 181.682 260.957 183.587C273.306 189.037 293.194 191.925 320 192C340.381 191.987 356.888 190.2 368.944 187.05C374.987 185.443 379.938 183.563 384.006 180.899C386.032 179.55 387.888 177.974 389.4 175.856C390.906 173.774 392.019 170.968 392 168L384 168L384 176L448 176L448 168" fill="#414042"/>
<path d="M96 296C95.9872 268.931 93.288 244.456 88.7312 226.174C86.4256 217.019 83.7184 209.419 80.232 203.475C78.456 200.499 76.488 197.894 73.9056 195.763C71.3632 193.65 67.8816 191.987 64 192C59.8192 191.987 56.1568 193.894 53.544 196.232C49.5632 199.8 46.9056 204.456 44.4624 210.118C42.0624 215.794 40.032 222.544 38.3056 230.25C37.3376 234.563 40.0496 238.843 44.3632 239.806C48.6752 240.774 52.9568 238.056 53.9184 233.75C55.9936 224.394 58.5872 216.944 61.056 212.475C62.2624 210.243 63.4432 208.806 64.1056 208.243L64.568 207.899L64 206.606L64 208L64.568 207.899L64 206.606L64 208L64 206.538L63.4432 207.906L64 208L64 206.538L63.4432 207.906L63.7184 208.099C64.656 208.738 66.968 211.8 68.9632 216.744C75.256 231.669 80.0624 261.837 80 296C80 300.419 83.5808 304 88 304C92.4192 304 96 300.419 96 296" fill="#414042"/>
<path d="M32 296C32.0128 323.062 34.712 347.544 39.2688 365.826C41.5744 374.981 44.2816 382.581 47.768 388.525C49.5376 391.499 51.5056 394.106 54.0944 396.237C56.632 398.35 60.112 400.013 64 400C68.4192 400 72 396.419 72 392C72 387.581 68.4192 384 64 384L64 385.456L64.5568 384.094L64 384L64 385.456L64.5568 384.094L64.2816 383.899C63.3376 383.262 61.0256 380.2 59.0368 375.256C52.744 360.331 47.9376 330.163 48 296C48 291.581 44.4192 288 40 288C35.5808 288 32 291.581 32 296" fill="#414042"/>
<path d="M152 224L307.056 224L320.843 251.574C322.2 254.294 324.963 256 328 256C331.037 256 333.794 254.294 335.157 251.574L348.944 224L456 224C460.419 224 464 220.419 464 216C464 211.581 460.419 208 456 208L344 208C340.963 208 338.2 209.706 336.843 212.426L328 230.112L319.157 212.426C317.794 209.706 315.037 208 312 208L152 208C147.581 208 144 211.581 144 216C144 220.419 147.581 224 152 224" fill="#414042"/>
<path d="M152 304L200 304C204.419 304 208 300.419 208 296C208 291.581 204.419 288 200 288L152 288C147.581 288 144 291.581 144 296C144 300.419 147.581 304 152 304" fill="#414042"/>
<path d="M248 304L296 304C298.106 304 300.168 303.144 301.656 301.656L312 291.312L322.344 301.656C323.832 303.144 325.894 304 328 304L360 304C364.419 304 368 300.419 368 296C368 291.581 364.419 288 360 288L331.312 288L317.656 274.344C314.531 271.219 309.469 271.219 306.344 274.344L292.688 288L248 288C243.581 288 240 291.581 240 296C240 300.419 243.581 304 248 304" fill="#414042"/>
<path d="M392 304L472 304C476.419 304 480 300.419 480 296C480 291.581 476.419 288 472 288L392 288C387.581 288 384 291.581 384 296C384 300.419 387.581 304 392 304" fill="#414042"/>
<path d="M152 368L212.688 368L242.344 397.656C244.157 399.475 246.75 400.306 249.282 399.894C251.819 399.488 254.006 397.875 255.157 395.574L268.944 368L324.688 368L338.344 381.656C339.832 383.144 341.894 384 344 384C346.106 384 348.168 383.144 349.656 381.656L363.312 368L392 368C396.419 368 400 364.419 400 360C400 355.581 396.419 352 392 352L360 352C357.894 352 355.832 352.85 354.344 354.344L344 364.688L333.656 354.344C332.168 352.85 330.106 352 328 352L264 352C260.963 352 258.2 353.706 256.843 356.426L245.806 378.494L221.656 354.344C220.168 352.85 218.106 352 216 352L152 352C147.581 352 144 355.581 144 360C144 364.419 147.581 368 152 368" fill="#414042"/>
<path d="M424 368L456 368C460.419 368 464 364.419 464 360C464 355.581 460.419 352 456 352L424 352C419.581 352 416 355.581 416 360C416 364.419 419.581 368 424 368" fill="#414042"/>
<path d="M376 104C376 95.1632 358.094 88 336 88C313.906 88 296 95.1632 296 104C296 112.837 313.906 120 336 120C358.094 120 376 112.837 376 104" fill="#c2b59b"/>
<path d="M376 104L384 104C384 98.9568 381.387 94.7808 378.357 91.9632C373.706 87.656 367.637 85 360.45 83.0128C353.269 81.0752 344.938 80.0064 336 80C324.075 80.0192 313.269 81.8752 304.744 85.256C300.475 86.9808 296.738 89.0624 293.643 91.9632C290.613 94.7808 288 98.9568 288 104C288 109.043 290.613 113.219 293.643 116.037C298.288 120.344 304.363 123 311.55 124.987C318.731 126.925 327.062 127.994 336 128C347.925 127.981 358.731 126.125 367.256 122.744C371.518 121.019 375.262 118.938 378.357 116.037C381.387 113.219 384 109.043 384 104L376 104L368 104L368.882 104L368.062 103.581L368 104L368.882 104L368.062 103.581C368.157 103.899 364.912 106.931 358.938 108.75C353.037 110.706 344.901 112.013 336 112C325.832 112.019 316.637 110.294 310.688 107.888C307.712 106.712 305.594 105.344 304.637 104.413L303.938 103.581L303.574 103.763L303.963 103.669L303.938 103.581L303.574 103.763L303.963 103.669L302.65 104L304 104L303.963 103.669L302.65 104L304 104L303.112 104L303.938 104.419L304 104L303.112 104L303.938 104.419C303.843 104.099 307.082 101.069 313.062 99.2496C318.963 97.2944 327.101 95.9872 336 96C346.168 95.9808 355.363 97.7056 361.312 100.112C364.288 101.288 366.4 102.65 367.363 103.581L368.062 104.419L368.426 104.237L368.037 104.331L368.062 104.419L368.426 104.237L368.037 104.331L369.35 104L368 104L368.037 104.331L369.35 104L368 104L376 104" fill="#414042"/>
<path d="M376 104C376 112.837 358.094 120 336 120C313.906 120 296 112.837 296 104L256 168C256 176.837 280.237 184 320 184C359.763 184 384 176.837 384 168L376 104" fill="#8b5e3c"/>
<path d="M376 104L368 104L368.882 104L368.062 103.581L368 104L368.882 104L368.062 103.581C368.157 103.899 364.912 106.931 358.938 108.75C353.037 110.706 344.901 112.013 336 112C325.832 112.019 316.637 110.294 310.688 107.888C307.712 106.712 305.594 105.344 304.637 104.413L303.938 103.581L303.574 103.763L303.963 103.669L303.938 103.581L303.574 103.763L303.963 103.669L302.65 104L304 104L303.963 103.669L302.65 104L304 104C304 100.426 301.643 97.2944 298.206 96.312C294.768 95.3248 291.112 96.7248 289.219 99.7632L249.219 163.763C248.432 165.019 248 166.518 248 168C247.981 170.968 249.094 173.774 250.6 175.856C253.288 179.531 256.819 181.682 260.957 183.587C273.306 189.037 293.194 191.925 320 192C340.381 191.987 356.888 190.2 368.944 187.05C374.987 185.443 379.938 183.563 384.006 180.899C386.032 179.55 387.888 177.974 389.4 175.856C390.906 173.774 392.019 170.968 392 168L391.938 167.006L383.938 103.006C383.413 98.8192 379.718 95.7504 375.501 96.0128C371.288 96.2816 368 99.7744 368 104L376 104L368.062 104.994L376.062 168.994L384 168L376 168L378.344 168L376.363 166.587L376 168L378.344 168L376.363 166.587L375.475 167.35C373.194 169.088 366.506 171.662 356.963 173.282C347.387 174.968 334.85 176.006 320 176C300.619 176.013 285.118 174.219 275.118 171.574C270.138 170.288 266.538 168.718 264.819 167.557L263.637 166.587L261.65 168L264 168L263.637 166.587L261.65 168L264 168L256 168L262.781 172.237L302.781 108.237L296 104L288 104C288 109.043 290.613 113.219 293.643 116.037C298.288 120.344 304.363 123 311.55 124.987C318.731 126.925 327.062 127.994 336 128C347.925 127.981 358.731 126.125 367.256 122.744C371.518 121.019 375.262 118.938 378.357 116.037C381.387 113.219 384 109.043 384 104L376 104L368.062 104.994L376 104" fill="#414042"/>
</g>
</svg>
