<svg height="100%" stroke-miterlimit="10" style="fill-rule:nonzero;clip-rule:evenodd;stroke-linecap:round;stroke-linejoin:round;" viewBox="0 0 512 512" width="100%" xml:space="preserve" xmlns="http://www.w3.org/2000/svg" xmlns:xlink="http://www.w3.org/1999/xlink">
<g opacity="1">
<path d="M444.099 255.55C432.327 248.451 418.591 243.171 404.057 237.581C355.648 218.989 323.464 203.089 317.33 153.405C308.543 82.2352 239.72 26.4994 160.655 26.4994C112.319 26.4994 68.2283 47.7891 36.5038 86.4301C3.8621 126.202-7.1786 176.39 4.55322 231.588C23.271 319.619 96.5218 405.175 195.733 454.897C235.674 474.912 279.769 485.501 323.238 485.501L323.26 485.501C413.61 485.501 491.615 440.868 508.742 379.361C514.821 357.54 520.683 301.787 444.099 255.55" fill="#f68579"/>
<path d="M425.002 279.723C385.931 256.13 298.996 249.954 287.8 159.292C276.598 68.6122 138.882 16.3591 63.407 108.325C-12.0776 200.292 66.7434 353.345 209.715 424.989C382.804 511.736 572.12 368.527 425.002 279.723" fill="#bf1b2c"/>
<path d="M407.865 354.542C407.865 375.528 390.852 392.537 369.869 392.537C348.88 392.537 331.872 375.528 331.872 354.542C331.872 333.554 348.88 316.539 369.869 316.539C390.852 316.539 407.865 333.554 407.865 354.542" fill="#ffffff"/>
<path d="M323.26 485.501L323.238 485.501C279.769 485.501 235.674 474.912 195.733 454.897C96.5218 405.175 23.271 319.619 4.55322 231.588C1.50585 217.249-0.00539333 203.249 1.44614e-05 189.682C-0.00539333 203.249 1.50585 217.249 4.55322 231.588C23.271 319.619 96.5218 405.175 195.733 454.897C235.674 474.912 279.769 485.501 323.238 485.501L323.26 485.501C323.305 485.501 323.342 485.501 323.385 485.501C323.346 485.501 323.3 485.501 323.26 485.501M323.433 485.501C323.461 485.501 323.482 485.501 323.51 485.501C323.485 485.501 323.457 485.501 323.433 485.501M323.57 485.501C323.592 485.501 323.614 485.501 323.635 485.501C323.617 485.501 323.59 485.501 323.57 485.501M323.694 485.501C323.722 485.501 323.737 485.501 323.765 485.501C323.74 485.501 323.719 485.501 323.694 485.501M323.821 485.499C323.842 485.499 323.87 485.499 323.892 485.499C323.873 485.499 323.839 485.499 323.821 485.499M323.946 485.499C323.969 485.499 323.994 485.499 324.015 485.499C323.991 485.499 323.97 485.499 323.946 485.499M324.076 485.499C324.103 485.499 324.119 485.499 324.145 485.499C324.127 485.499 324.096 485.499 324.076 485.499M324.199 485.499C324.221 485.499 324.253 485.499 324.275 485.499C324.25 485.499 324.224 485.499 324.199 485.499M324.327 485.499C324.366 485.497 324.406 485.497 324.445 485.497C324.405 485.497 324.366 485.497 324.327 485.499M324.451 485.497C324.494 485.497 324.533 485.497 324.576 485.497C324.537 485.497 324.49 485.497 324.451 485.497M324.615 485.497C324.643 485.497 324.677 485.496 324.704 485.496C324.675 485.496 324.646 485.497 324.615 485.497M324.752 485.496C324.78 485.496 324.8 485.496 324.828 485.496C324.803 485.496 324.777 485.496 324.752 485.496M324.882 485.496C324.91 485.496 324.93 485.496 324.958 485.495C324.933 485.496 324.907 485.496 324.882 485.496M325.007 485.495C325.029 485.495 325.061 485.495 325.083 485.495C325.058 485.495 325.032 485.495 325.007 485.495M325.134 485.495C325.162 485.495 325.185 485.493 325.213 485.493C325.188 485.493 325.159 485.495 325.134 485.495M325.264 485.493C325.285 485.493 325.31 485.493 325.333 485.493C325.313 485.493 325.284 485.493 325.264 485.493M325.39 485.491C325.414 485.491 325.443 485.491 325.465 485.491C325.44 485.491 325.415 485.491 325.39 485.491M325.517 485.491C325.55 485.491 325.594 485.49 325.627 485.49C325.591 485.49 325.551 485.491 325.517 485.491M325.641 485.49C325.684 485.49 325.723 485.49 325.767 485.488C325.727 485.49 325.679 485.49 325.641 485.49M325.808 485.488C325.835 485.488 325.863 485.488 325.891 485.488C325.862 485.488 325.837 485.488 325.808 485.488M325.948 485.487C325.97 485.487 325.995 485.487 326.018 485.487C325.998 485.487 325.968 485.487 325.948 485.487M326.072 485.487C326.1 485.485 326.117 485.485 326.144 485.485C326.12 485.485 326.096 485.485 326.072 485.487M326.202 485.485C326.225 485.484 326.246 485.484 326.268 485.484C326.248 485.484 326.222 485.484 326.202 485.485M326.328 485.484C326.35 485.484 326.37 485.482 326.392 485.482C326.372 485.482 326.348 485.484 326.328 485.484M326.456 485.482C326.473 485.482 326.504 485.48 326.52 485.48C326.5 485.48 326.477 485.482 326.456 485.482M326.579 485.48C326.606 485.48 326.626 485.479 326.654 485.479C326.63 485.479 326.603 485.48 326.579 485.48M326.705 485.479C326.733 485.479 326.766 485.477 326.793 485.477C326.764 485.477 326.735 485.479 326.705 485.479M326.83 485.477C326.874 485.476 326.908 485.476 326.952 485.476C326.912 485.476 326.869 485.476 326.83 485.477M326.999 485.474C327.027 485.474 327.054 485.474 327.082 485.474C327.053 485.474 327.03 485.474 326.999 485.474M327.126 485.473C327.153 485.473 327.178 485.473 327.206 485.471C327.181 485.473 327.15 485.473 327.126 485.473M327.261 485.471C327.289 485.471 327.302 485.471 327.329 485.47C327.309 485.47 327.282 485.471 327.261 485.471M327.394 485.47C327.416 485.468 327.427 485.468 327.448 485.468C327.428 485.468 327.414 485.468 327.394 485.47M327.521 485.466C327.544 485.466 327.555 485.466 327.577 485.466C327.557 485.466 327.541 485.466 327.521 485.466M327.645 485.465C327.662 485.465 327.683 485.465 327.699 485.465C327.685 485.465 327.66 485.465 327.645 485.465M327.77 485.463C327.793 485.463 327.804 485.462 327.825 485.462C327.805 485.462 327.79 485.463 327.77 485.463M327.895 485.46C327.912 485.46 327.924 485.46 327.94 485.46C327.926 485.46 327.91 485.46 327.895 485.46M328.213 485.456C328.23 485.456 328.246 485.454 328.263 485.454C328.247 485.454 328.229 485.456 328.213 485.456M328.338 485.452C328.354 485.452 328.369 485.452 328.386 485.452C328.366 485.452 328.357 485.452 328.338 485.452M328.462 485.451C328.477 485.451 328.493 485.451 328.51 485.449C328.494 485.449 328.476 485.451 328.462 485.451M328.587 485.448C328.604 485.448 328.618 485.448 328.634 485.448C328.62 485.448 328.603 485.448 328.587 485.448M328.709 485.446C328.725 485.446 328.742 485.445 328.759 485.445C328.739 485.445 328.728 485.446 328.709 485.446M328.836 485.443C328.853 485.443 328.862 485.443 328.879 485.443C328.864 485.443 328.851 485.443 328.836 485.443M328.956 485.44C328.973 485.44 328.986 485.44 329.001 485.44C328.987 485.44 328.972 485.44 328.956 485.44M329.086 485.438C329.092 485.438 329.091 485.438 329.097 485.438C329.092 485.438 329.091 485.438 329.086 485.438M329.666 485.425C329.672 485.425 329.683 485.425 329.687 485.425C329.683 485.425 329.67 485.425 329.666 485.425M329.782 485.423C329.788 485.421 329.805 485.421 329.811 485.421C329.8 485.421 329.792 485.421 329.782 485.423M329.902 485.42C329.913 485.42 329.922 485.419 329.934 485.419C329.924 485.419 329.913 485.42 329.902 485.42M330.029 485.417C330.033 485.417 330.043 485.415 330.047 485.415C330.038 485.417 330.038 485.417 330.029 485.417M330.152 485.414C330.159 485.414 330.154 485.414 330.159 485.414L330.152 485.414M330.858 485.396C330.865 485.394 330.862 485.396 330.866 485.394L330.858 485.396M330.98 485.391L330.984 485.391L330.98 485.391M331.098 485.388L331.104 485.388L331.098 485.388M160.853 26.4994C160.837 26.4994 160.83 26.4994 160.816 26.4994C160.828 26.4994 160.841 26.4994 160.853 26.4994M160.759 26.4994C160.725 26.4994 160.689 26.4994 160.655 26.4994C160.689 26.4994 160.723 26.4994 160.759 26.4994" fill="#bdbcbd"/>
</g>
</svg>
