<svg height="100%" stroke-miterlimit="10" style="fill-rule:nonzero;clip-rule:evenodd;stroke-linecap:round;stroke-linejoin:round;" viewBox="0 0 512 512" width="100%" xml:space="preserve" xmlns="http://www.w3.org/2000/svg" xmlns:xlink="http://www.w3.org/1999/xlink">
<g>
<path d="M460.314 425.76L460.314 274.507C460.314 236.247 429.294 205.224 391.03 205.224L117.867 205.224C79.5975 205.224 48.585 236.247 48.585 274.507L48.585 425.76L460.314 425.76" fill="#eda061"/>
<path d="M391.03 205.224L117.867 205.224C79.5975 205.224 48.585 236.247 48.585 274.507L48.585 327.707C51.0332 329.326 53.9459 330.411 57.7846 330.411C74.0421 330.411 74.0421 311.383 90.3001 311.383C106.555 311.383 106.555 330.411 122.811 330.411C139.069 330.411 139.069 311.383 155.327 311.383C171.586 311.383 171.586 330.411 187.842 330.411C204.107 330.411 204.107 311.383 220.373 311.383C236.631 311.383 236.631 330.411 252.893 330.411C269.153 330.411 269.153 311.383 285.411 311.383C301.679 311.383 301.679 330.411 317.942 330.411C334.2 330.411 334.2 311.383 350.465 311.383C366.732 311.383 366.732 330.411 382.993 330.411C399.255 330.411 399.255 311.383 415.521 311.383C431.779 311.383 431.779 330.411 448.037 330.411C453.608 330.411 457.254 328.157 460.314 325.225L460.314 274.507C460.314 236.247 429.294 205.224 391.03 205.224" fill="#f3655b"/>
<path d="M512 450.222C512 463.725 504.132 474.678 494.431 474.678L17.5657 474.678C7.86519 474.678 3.55271e-14 463.725 3.55271e-14 450.222C3.55271e-14 436.712 7.86519 425.76 17.5657 425.76L494.431 425.76C504.132 425.76 512 436.712 512 450.222" fill="#401011"/>
<path d="M360.491 186.352C360.491 197.995 351.054 207.437 339.41 207.437L172.593 207.437C160.949 207.437 151.505 197.995 151.505 186.352C151.505 174.712 160.949 165.274 172.593 165.274L339.41 165.274C351.054 165.274 360.491 174.712 360.491 186.352" fill="#f3655b"/>
<path d="M342.161 145.575C342.161 157.215 332.727 166.653 321.08 166.653L190.926 166.653C179.282 166.653 169.845 157.215 169.845 145.575C169.845 133.926 179.282 124.492 190.926 124.492L321.08 124.492C332.727 124.492 342.161 133.926 342.161 145.575" fill="#f3655b"/>
<path d="M323.832 106.739C323.832 118.38 314.391 127.824 302.75 127.824L209.257 127.824C197.608 127.824 188.173 118.38 188.173 106.739C188.173 95.0983 197.608 85.6575 209.257 85.6575C221.109 85.6575 238.29 87.9637 246.587 70.7811C249.822 64.092 246.899 57.7656 237.367 52.9187C225.524 46.9043 231.538 33.5075 244.547 38.3611C289.483 55.1321 323.832 95.0983 323.832 106.739" fill="#f3655b"/>
</g>
</svg>
