<svg height="100%" stroke-miterlimit="10" style="fill-rule:nonzero;clip-rule:evenodd;stroke-linecap:round;stroke-linejoin:round;" viewBox="0 0 512 512" width="100%" xml:space="preserve" xmlns="http://www.w3.org/2000/svg" xmlns:xlink="http://www.w3.org/1999/xlink">
<g>
<path d="M32.3862 214.71L0 182.323L111.745 70.5782L144.132 102.964L32.3862 214.71" fill="#f9ae36"/>
<path d="M64.7714 247.096L32.3862 214.71L144.132 102.964L176.517 135.35L64.7714 247.096" fill="#f89c19"/>
<path d="M255.803 150.015L223.417 182.402L111.67 70.6553L144.055 38.2691L255.803 150.015" fill="#f57e14"/>
<path d="M288.188 117.629L255.803 150.015L144.055 38.2691L176.442 5.88283L288.188 117.629" fill="#f89c19"/>
<path d="M32.3862 344.221L0 311.836L111.745 200.089L144.132 232.474L32.3862 344.221" fill="#f9ae36"/>
<path d="M64.7714 376.607L32.3862 344.221L144.132 232.474L176.517 264.861L64.7714 376.607" fill="#f89c19"/>
<path d="M255.803 279.527L223.417 311.912L111.67 200.165L144.055 167.78L255.803 279.527" fill="#f57e14"/>
<path d="M288.188 247.14L255.803 279.527L144.055 167.78L176.442 135.394L288.188 247.14" fill="#f89c19"/>
<path d="M32.3862 473.732L0 441.346L111.745 329.599L144.132 361.986L32.3862 473.732" fill="#f9ae36"/>
<path d="M64.7714 506.117L32.3862 473.732L144.132 361.986L176.517 394.371L64.7714 506.117" fill="#f89c19"/>
<path d="M255.803 409.037L223.417 441.423L111.67 329.677L144.055 297.291L255.803 409.037" fill="#f57e14"/>
<path d="M288.188 376.651L255.803 409.037L144.055 297.291L176.442 264.905L288.188 376.651" fill="#f89c19"/>
<path d="M256.197 214.71L223.811 182.323L335.558 70.5782L367.943 102.964L256.197 214.71" fill="#f9ae36"/>
<path d="M288.582 247.096L256.197 214.71L367.943 102.964L400.33 135.35L288.582 247.096" fill="#f89c19"/>
<path d="M479.615 150.015L447.229 182.402L335.482 70.6553L367.868 38.2691L479.615 150.015" fill="#f57e14"/>
<path d="M512 117.629L479.615 150.015L367.868 38.2691L400.255 5.88283L512 117.629" fill="#f89c19"/>
<path d="M256.197 344.221L223.811 311.836L335.558 200.089L367.943 232.474L256.197 344.221" fill="#f9ae36"/>
<path d="M288.582 376.607L256.197 344.221L367.943 232.474L400.33 264.861L288.582 376.607" fill="#f89c19"/>
<path d="M479.615 279.527L447.229 311.912L335.482 200.165L367.868 167.78L479.615 279.527" fill="#f57e14"/>
<path d="M512 247.14L479.615 279.527L367.868 167.78L400.255 135.394L512 247.14" fill="#f89c19"/>
<path d="M256.197 473.732L223.811 441.346L335.558 329.599L367.943 361.986L256.197 473.732" fill="#f9ae36"/>
<path d="M288.582 506.117L256.197 473.732L367.943 361.986L400.33 394.371L288.582 506.117" fill="#f89c19"/>
<path d="M479.615 409.037L447.229 441.423L335.482 329.677L367.868 297.291L479.615 409.037" fill="#f57e14"/>
<path d="M512 376.651L479.615 409.037L367.868 297.291L400.255 264.905L512 376.651" fill="#f89c19"/>
</g>
</svg>
