<svg height="100%" stroke-miterlimit="10" style="fill-rule:nonzero;clip-rule:evenodd;stroke-linecap:round;stroke-linejoin:round;" viewBox="0 0 512 512" width="100%" xml:space="preserve" xmlns="http://www.w3.org/2000/svg" xmlns:xlink="http://www.w3.org/1999/xlink">
<g>
<path d="M113.143 128.449L113.143 434.571C113.143 474.02 177.102 506 256 506C334.898 506 398.857 474.02 398.857 434.571L398.857 128.449L113.143 128.449" fill="#fbc508" stroke="#100f0d" stroke-width="7.66667"/>
<path d="M113.143 128.449L113.143 434.571C113.143 474.02 177.102 506 256 506C334.898 506 398.857 474.02 398.857 434.571L398.857 128.449L113.143 128.449Z" fill="none" stroke="#100f0d" stroke-width="7.66667"/>
<path d="M113.143 77.4286L113.143 383.551C113.143 423 177.102 454.98 256 454.98C334.898 454.98 398.857 423 398.857 383.551L398.857 77.4286L113.143 77.4286" fill="#ed1b32" stroke="#100f0d" stroke-width="7.66667"/>
<path d="M113.143 77.4286L113.143 383.551C113.143 423 177.102 454.98 256 454.98C334.898 454.98 398.857 423 398.857 383.551L398.857 77.4286L113.143 77.4286Z" fill="none" stroke="#100f0d" stroke-width="7.66667"/>
<path d="M256 148.857C177.102 148.857 113.143 116.878 113.143 77.4286L113.143 128.449C113.143 167.898 177.102 199.878 256 199.878C334.898 199.878 398.857 167.898 398.857 128.449L398.857 77.4286C398.857 116.878 334.898 148.857 256 148.857" fill="#fbc508" stroke="#100f0d" stroke-width="7.66667"/>
<path d="M256 148.857C177.102 148.857 113.143 116.878 113.143 77.4286L113.143 128.449C113.143 167.898 177.102 199.878 256 199.878C334.898 199.878 398.857 167.898 398.857 128.449L398.857 77.4286C398.857 116.878 334.898 148.857 256 148.857Z" fill="none" stroke="#100f0d" stroke-width="7.66667"/>
<path d="M398.857 77.4286C398.857 116.878 334.898 148.857 256 148.857C177.102 148.857 113.143 116.878 113.143 77.4286C113.143 37.9796 177.102 6 256 6C334.898 6 398.857 37.9796 398.857 77.4286" fill="#fbc508" stroke="#100f0d" stroke-width="7.66667"/>
<path d="M398.857 77.4286C398.857 116.878 334.898 148.857 256 148.857C177.102 148.857 113.143 116.878 113.143 77.4286C113.143 37.9796 177.102 6 256 6C334.898 6 398.857 37.9796 398.857 77.4286Z" fill="none" stroke="#100f0d" stroke-width="7.66667"/>
<path d="M337.633 77.4286C337.633 94.3357 301.085 108.041 256 108.041C210.915 108.041 174.367 94.3357 174.367 77.4286C174.367 60.5214 210.915 46.8163 256 46.8163C301.085 46.8163 337.633 60.5214 337.633 77.4286" fill="#ed1b32" stroke="#100f0d" stroke-width="7.66667"/>
<path d="M337.633 77.4286C337.633 94.3357 301.085 108.041 256 108.041C210.915 108.041 174.367 94.3357 174.367 77.4286C174.367 60.5214 210.915 46.8163 256 46.8163C301.085 46.8163 337.633 60.5214 337.633 77.4286Z" fill="none" stroke="#100f0d" stroke-width="7.66667"/>
<path d="M256 403.959L174.367 322.327L256 240.694L337.633 322.327L256 403.959" fill="#fbc508" stroke="#100f0d" stroke-width="7.66667"/>
<path d="M256 403.959L174.367 322.327L256 240.694L337.633 322.327L256 403.959Z" fill="none" stroke="#100f0d" stroke-width="7.66667"/>
<path d="M256 352.939L225.388 322.327L256 291.714L286.612 322.327L256 352.939" fill="#ed1b32" stroke="#100f0d" stroke-width="7.66667"/>
<path d="M256 352.939L225.388 322.327L256 291.714L286.612 322.327L256 352.939Z" fill="none" stroke="#100f0d" stroke-width="7.66667"/>
</g>
</svg>
