<svg height="100%" stroke-miterlimit="10" style="fill-rule:nonzero;clip-rule:evenodd;stroke-linecap:round;stroke-linejoin:round;" viewBox="0 0 512 512" width="100%" xml:space="preserve" xmlns="http://www.w3.org/2000/svg" xmlns:xlink="http://www.w3.org/1999/xlink">
<g>
<path d="M415.995 320.815C441.187 355.181 453.621 387.298 452.891 416.258C452.548 430.271 447.809 450.197 435.496 464.17C425.756 475.207 401.11 484.967 384.606 482.74C396.636 467.694 405.485 450.562 407.226 430.351C408.766 412.207 408.563 396.168 405.403 380.313C403.136 368.931 399.35 357.652 393.597 345.785C377.195 311.966 352.105 282.967 327.803 254.656C326.102 252.713 324.463 250.789 322.862 248.926C320.695 246.394 318.528 243.924 316.341 241.493L334.77 225.78C363.728 256.136 391.593 287.584 415.995 320.815" fill="#eff4f4" />
<path d="M452.891 416.258C453.621 387.298 441.187 355.181 415.995 320.815C391.593 287.584 363.728 256.136 334.77 225.78L316.341 241.493C318.528 243.924 320.695 246.394 322.862 248.926C324.463 250.789 326.102 252.713 327.803 254.656C352.105 282.967 377.195 311.966 393.597 345.785C399.35 357.652 403.136 368.931 405.403 380.313C408.563 396.168 408.766 412.207 407.226 430.351C405.485 450.562 396.636 467.694 384.606 482.74C401.11 484.967 425.756 475.207 435.496 464.17C447.809 450.197 452.548 430.271 452.891 416.258ZM464.698 333.959C503.072 378.975 497.707 446.593 452.689 484.988L451.049 486.386C406.031 524.78 338.414 519.394 300.02 474.377L173.654 326.223L338.334 185.784L464.698 333.959" fill="#db1f25"/>
<path d="M211.989 37.6188C173.598-7.40065 105.981-12.7745 60.9613 25.6169L59.3145 27.0216C14.2951 65.413 8.9212 133.03 47.3126 178.05L173.664 326.216L338.341 185.785L211.989 37.6188" fill="#f5b923"/>
<path d="M184.209 257.342C159.906 229.037 134.804 200.027 118.411 166.217C112.659 154.34 108.861 143.06 106.593 131.696C103.433 115.842 103.232 99.7973 104.783 81.6389C106.516 61.4466 115.359 44.3101 127.393 29.2694C110.883 27.0413 86.2446 36.7982 76.5059 47.8388C64.2028 61.7957 59.4482 81.7374 59.1034 95.7492C58.387 124.705 70.8097 156.812 96.0184 191.186C120.401 224.42 148.285 255.856 177.238 286.214L195.666 270.5C193.476 268.081 191.299 265.614 189.138 263.08C187.534 261.22 185.894 259.297 184.209 257.342" fill="#eff4f4" />
</g>
</svg>
