<svg height="100%" stroke-miterlimit="10" style="fill-rule:nonzero;clip-rule:evenodd;stroke-linecap:round;stroke-linejoin:round;" viewBox="0 0 512 512" width="100%" xml:space="preserve" xmlns="http://www.w3.org/2000/svg" xmlns:xlink="http://www.w3.org/1999/xlink">
<g>
<path d="M145.636 188.023C144.538 213.86 118.911 223.504 96.7086 225.094C84.1314 225.997 67.9313 224.282 55.6806 221.155C31.2927 214.93 9.19113 201.843 1.324 183.444C-2.85193 173.672 3.11266 165.979 15.5207 160.67C23.1683 157.399 34.1132 154.74 46.315 153.078C58.185 151.458 71.4518 150.744 84.1532 151.281C106.886 152.271 146.857 158.99 145.636 188.023ZM60.3076 202.928C72.0045 205.912 84.3419 207.141 95.3855 206.358C106.71 205.551 126.293 201.776 126.898 187.285C127.377 175.963 106.576 171.002 83.4181 170.019C71.8394 169.531 59.706 170.187 48.8129 171.671C-5.62359 176.555 31.3933 195.336 60.3076 202.928L60.3076 202.928" fill="#462822"/>
<path d="M239.542 160.962C240.219 164.909 242.287 168.427 245.231 170.991C248.244 173.616 252.202 175.212 256.521 175.212C260.848 175.212 264.803 173.616 267.816 170.991C270.898 168.307 273.022 164.583 273.592 160.412C274.739 151.851 285.748 149.361 290.622 156.234C295.843 162.265 303.334 165.658 311.311 165.658C315.779 165.658 320.048 164.662 324.003 162.581C328.585 160.189 334.25 161.968 336.641 166.55C336.803 166.863 336.947 167.176 337.072 167.498C340.228 175.111 346.702 180.916 354.602 183.247C358.154 184.29 360.623 187.253 361.21 190.669C364.002 202.506 365.539 214.619 365.539 226.785C365.539 261.366 351.913 286.54 341.513 305.77C336.02 315.926 331.571 324.145 331.571 329.414C331.571 353.462 323.969 374.085 310.868 388.789C297.542 403.742 278.718 412.473 256.521 412.473C234.323 412.473 215.502 403.737 202.176 388.784C189.076 374.085 181.473 353.462 181.473 329.414C181.473 324.155 177.027 315.929 171.537 305.778C161.136 286.55 147.51 261.364 147.51 226.785C147.51 214.531 148.885 202.185 151.625 190.239C152.416 186.786 155.02 184.216 158.206 183.303L158.203 183.298C162.267 182.138 165.938 180.083 168.951 177.381C172.015 174.641 174.462 171.206 176.036 167.357C178.096 162.289 184.197 160.017 189.044 162.587L189.044 162.581C196.527 166.502 205.762 166.683 213.405 163.078C217.095 161.336 220.331 158.798 222.874 155.711C228.149 149.3 238.905 152.321 239.542 160.962ZM226.203 177.431C214.735 184.636 201.9 186.109 188.993 182.65C186.841 185.859 184.297 188.782 181.441 191.341C177.733 194.667 173.493 197.404 168.88 199.395C167.141 208.45 166.321 217.568 166.321 226.785C166.321 256.684 178.654 279.479 188.067 296.885C194.818 309.369 200.283 319.473 200.283 329.414C200.283 348.718 206.134 364.988 216.211 376.294C225.977 387.255 239.938 393.66 256.521 393.66C273.109 393.66 287.064 387.257 296.833 376.297C306.91 364.988 312.761 348.718 312.761 329.414C312.761 319.467 318.229 309.361 324.983 296.877C334.396 279.471 346.729 256.684 346.729 226.785C346.729 217.595 345.741 208.291 343.918 199.281C335.856 195.734 328.951 189.969 324.051 182.65C311.256 186.146 298.232 184.606 286.841 177.423C280.226 187.763 268.849 194.025 256.521 194.025C244.217 194.025 232.802 187.76 226.203 177.431ZM205.385 208.572C214.799 208.572 222.433 216.207 222.433 225.625C222.433 235.041 214.799 242.675 205.385 242.675C195.97 242.675 188.335 235.041 188.335 225.625C188.335 216.207 195.97 208.572 205.385 208.572ZM307.661 208.572C317.08 208.572 324.714 216.207 324.714 225.625C324.714 235.041 317.08 242.675 307.661 242.675C298.251 242.675 290.616 235.041 290.616 225.625C290.616 216.207 298.251 208.572 307.661 208.572L307.661 208.572" fill="#462822"/>
<path d="M278.368 306.741C281.137 304.402 285.289 304.745 287.63 307.514C289.969 310.282 289.629 314.432 286.86 316.773L264.463 335.687C264.206 335.904 263.946 336.106 263.67 336.295L263.67 361.367C268.546 360.502 273.423 358.606 278.291 355.673C281.397 353.802 285.442 354.805 287.314 357.914C289.188 361.022 288.187 365.065 285.079 366.939C276.016 372.397 266.789 375.091 257.426 375.091C248.042 375.091 238.65 372.371 229.256 367.022C226.102 365.232 224.995 361.221 226.784 358.068C228.571 354.917 232.582 353.81 235.733 355.596C240.715 358.431 245.64 360.329 250.5 361.256L250.5 335.923L250.211 335.687L227.817 316.773C225.048 314.432 224.706 310.282 227.047 307.514C229.386 304.745 233.537 304.402 236.306 306.741L257.336 324.503L278.368 306.741L278.368 306.741" fill="#462822"/>
<path d="M366.365 188.023C367.464 213.86 393.089 223.504 415.289 225.094C428.899 226.074 441.498 224.932 456.318 221.155C480.709 214.93 502.808 201.843 510.676 183.444C514.852 173.672 508.887 165.979 496.479 160.67C488.832 157.399 477.887 154.74 465.686 153.078C453.812 151.458 440.547 150.744 427.845 151.281C404.971 152.236 365.125 158.867 366.365 188.023ZM451.691 202.928C439.995 205.912 427.659 207.141 416.614 206.358C405.292 205.551 385.706 201.776 385.101 187.285C384.623 175.963 405.422 171.002 428.583 170.019C440.162 169.531 452.294 170.187 463.186 171.671C517.623 176.555 480.605 195.336 451.691 202.928L451.691 202.928" fill="#462822"/>
<path d="M422.785 141.971C420.837 110.817 391.042 80.7217 356.084 92.9541C344.17 50.0453 290.659 33.1648 256.093 61.2265C221.528 33.1808 168.033 50.0268 156.106 92.9116C122.309 80.9607 91.1932 109.03 89.5309 142.09C95.9329 142.587 102.142 143.46 108.207 144.628C108.21 144.342 108.215 144.055 108.219 143.768C108.948 118.621 133.589 99.5189 157.937 114.525C159.289 115.454 160.9 116.041 162.655 116.15C167.831 116.474 172.288 112.542 172.612 107.366C175.131 68.7018 222.946 52.1239 249.064 80.3103C252.929 84.5364 259.26 84.5284 263.117 80.3103C289.228 52.1133 337.048 68.7097 339.564 107.366C339.888 112.542 344.348 116.474 349.519 116.15C351.382 116.033 353.084 115.385 354.483 114.355C380.62 98.5207 404.172 122.062 403.996 144.737C409.56 143.468 415.894 142.576 422.785 141.971L422.785 141.971" fill="#f04125"/>
<path d="M425.291 234.717C424.161 247.053 417.338 258.106 405.812 264.841C399.515 268.515 399.696 277.591 405.881 281.119C435.769 301.708 424.468 349.114 388.045 353.411C381.655 354.035 377.586 361.022 380.495 366.838C386.314 379.976 383.253 394.066 372.632 403.676C362.245 413.071 347.693 415.064 335.346 408.236C329.057 404.743 321.335 408.258 320.916 415.598C319.089 444.941 282.363 456.451 263.473 433.779C259.536 429.012 252.754 428.921 248.692 433.803C239.996 444.56 226.468 448.212 213.684 444.198C200.743 440.118 192.121 429.237 191.263 415.564C190.817 408.483 183.071 404.496 176.912 408.189C169.888 412.099 162.668 413.098 156.061 411.945C143.709 409.797 133.253 400.124 129.919 388.075C128.114 381.534 128.43 374.178 131.696 366.812C134.454 360.903 130.629 354.046 124.134 353.411C87.7058 349.114 76.4145 301.711 106.295 281.119C107.679 280.331 108.88 279.173 109.743 277.7C112.357 273.216 110.845 267.456 106.364 264.841C94.723 258.037 88.1643 246.652 86.9126 234.68C80.6919 234.6 74.4029 234.098 68.0162 233.029C68.57 247.961 74.6599 262.654 86.4614 273.437C56.7902 304.1 70.1617 357.223 111.096 369.793C109.42 377.828 109.817 385.736 111.846 393.073C117.113 412.115 133.4 427.063 152.902 430.467C159.939 431.692 167.374 431.416 174.821 429.279C179.806 445.167 192.328 457.156 208.098 462.13C224.597 467.314 242.666 464.161 256.093 452.937C283.43 475.817 326.711 463.295 337.364 429.245C354.326 434.052 372.184 429.33 385.197 417.568C398.602 405.439 404.872 387.536 401.103 369.785C442.013 357.194 455.394 304.092 425.719 273.434C437.338 262.818 443.643 248.255 444.173 233.071C437.879 234.252 431.585 234.868 425.291 234.717L425.291 234.717" fill="#f04125"/>
</g>
</svg>
