<svg height="100%" stroke-miterlimit="10" style="fill-rule:nonzero;clip-rule:evenodd;stroke-linecap:round;stroke-linejoin:round;" viewBox="0 0 512 512" width="100%" xml:space="preserve" xmlns="http://www.w3.org/2000/svg" xmlns:xlink="http://www.w3.org/1999/xlink">
<g>
<path d="M485.181 319.51C492.576 319.51 498.591 325.525 498.591 332.919C498.591 340.313 492.576 346.329 485.181 346.329C477.787 346.329 471.771 340.313 471.771 332.919C471.771 325.525 477.787 319.51 485.181 319.51ZM332.919 40.2285C325.525 40.2285 319.51 34.2131 319.51 26.8196C319.51 19.4252 325.525 13.4098 332.919 13.4098C340.313 13.4098 346.329 19.4252 346.329 26.8196C346.329 34.2131 340.313 40.2285 332.919 40.2285ZM346.329 485.181C346.329 492.576 340.313 498.591 332.919 498.591C325.525 498.591 319.51 492.576 319.51 485.181C319.51 477.787 325.525 471.771 332.919 471.771C340.313 471.771 346.329 477.787 346.329 485.181ZM256 40.2285C248.606 40.2285 242.591 34.2131 242.591 26.8196C242.591 19.4252 248.606 13.4098 256 13.4098C263.394 13.4098 269.41 19.4252 269.41 26.8196C269.41 34.2131 263.394 40.2285 256 40.2285ZM269.41 485.181C269.41 492.576 263.394 498.591 256 498.591C248.606 498.591 242.591 492.576 242.591 485.181C242.591 477.787 248.606 471.771 256 471.771C263.394 471.771 269.41 477.787 269.41 485.181ZM179.081 40.2285C171.688 40.2285 165.672 34.2131 165.672 26.8196C165.672 19.4252 171.688 13.4098 179.081 13.4098C186.475 13.4098 192.491 19.4252 192.491 26.8196C192.491 34.2131 186.475 40.2285 179.081 40.2285ZM192.491 485.181C192.491 492.576 186.475 498.591 179.081 498.591C171.688 498.591 165.672 492.576 165.672 485.181C165.672 477.787 171.688 471.771 179.081 471.771C186.475 471.771 192.491 477.787 192.491 485.181ZM26.8196 346.329C19.4252 346.329 13.4098 340.313 13.4098 332.919C13.4098 325.525 19.4252 319.51 26.8196 319.51C34.2131 319.51 40.2285 325.525 40.2285 332.919C40.2285 340.313 34.2131 346.329 26.8196 346.329ZM26.8196 269.409C19.4252 269.409 13.4098 263.394 13.4098 256C13.4098 248.606 19.4252 242.591 26.8196 242.591C34.2131 242.591 40.2285 248.606 40.2285 256C40.2285 263.394 34.2131 269.409 26.8196 269.409ZM26.8196 192.491C19.4252 192.491 13.4098 186.475 13.4098 179.081C13.4098 171.688 19.4252 165.672 26.8196 165.672C34.2131 165.672 40.2285 171.688 40.2285 179.081C40.2285 186.475 34.2131 192.491 26.8196 192.491ZM485.181 165.672C492.576 165.672 498.591 171.688 498.591 179.081C498.591 186.475 492.576 192.491 485.181 192.491C477.787 192.491 471.771 186.475 471.771 179.081C471.771 171.688 477.787 165.672 485.181 165.672ZM485.181 242.591C492.576 242.591 498.591 248.606 498.591 256C498.591 263.394 492.576 269.409 485.181 269.409C477.787 269.409 471.771 263.394 471.771 256C471.771 248.606 477.787 242.591 485.181 242.591ZM460.001 265.143C463.752 275.436 473.607 282.819 485.181 282.819C499.969 282.819 512 270.788 512 256C512 241.213 499.969 229.181 485.181 229.181C473.607 229.181 463.752 236.564 460.001 246.857L384 246.857L384 188.224L460.001 188.224C463.752 198.517 473.607 205.901 485.181 205.901C499.969 205.901 512 193.87 512 179.081C512 164.293 499.969 152.262 485.181 152.262C473.607 152.262 463.752 159.646 460.001 169.939L384 169.939L384 163.353C384 143.828 368.172 128.001 348.648 128.001L342.062 128.001L342.062 52.0313C352.362 48.2854 359.739 38.3979 359.739 26.8196C359.739 12.0317 347.707 0 332.919 0C318.131 0 306.1 12.0317 306.1 26.8196C306.1 38.3979 313.477 48.2854 323.776 52.0313L323.776 128.001L265.143 128.001L265.143 52.0313C275.443 48.2854 282.819 38.3979 282.819 26.8196C282.819 12.0317 270.788 0 256 0C241.213 0 229.181 12.0317 229.181 26.8196C229.181 38.3979 236.558 48.2854 246.857 52.0313L246.857 128.001L188.224 128.001L188.224 52.0313C198.524 48.2854 205.901 38.3979 205.901 26.8196C205.901 12.0317 193.87 8.52651e-14 179.081 8.52651e-14C164.293 8.52651e-14 152.262 12.0317 152.262 26.8196C152.262 38.3979 159.639 48.2854 169.939 52.0313L169.939 128.001L163.353 128.001C143.828 128.001 128.001 143.828 128.001 163.353L128.001 169.939L51.9988 169.939C48.2494 159.646 38.3934 152.262 26.8196 152.262C12.0317 152.262 0 164.293 0 179.081C0 193.87 12.0317 205.901 26.8196 205.901C38.3934 205.901 48.2485 198.517 51.9988 188.224L128.001 188.224L128.001 246.857L51.9988 246.857C48.2494 236.564 38.3934 229.181 26.8196 229.181C12.0317 229.181 0 241.213 0 256C0 270.788 12.0317 282.819 26.8196 282.819C38.3934 282.819 48.2494 275.436 51.9988 265.143L128.001 265.143L128.001 323.776L51.9988 323.776C48.2494 313.484 38.3934 306.1 26.8196 306.1C12.0317 306.1 0 318.131 0 332.919C0 347.708 12.0317 359.739 26.8196 359.739C38.3934 359.739 48.2494 352.355 51.9988 342.062L128.001 342.062L128.001 348.648C128.001 368.172 143.828 384 163.353 384L169.939 384L169.939 459.969C159.639 463.715 152.262 473.603 152.262 485.181C152.262 499.969 164.293 512 179.081 512C193.87 512 205.901 499.969 205.901 485.181C205.901 473.603 198.524 463.715 188.224 459.969L188.224 384L246.857 384L246.857 459.969C236.558 463.715 229.181 473.603 229.181 485.181C229.181 499.969 241.213 512 256 512C270.788 512 282.819 499.969 282.819 485.181C282.819 473.603 275.443 463.715 265.143 459.969L265.143 384L323.776 384L323.776 459.969C313.477 463.715 306.1 473.603 306.1 485.181C306.1 499.969 318.131 512 332.919 512C347.707 512 359.739 499.969 359.739 485.181C359.739 473.603 352.362 463.715 342.062 459.969L342.062 384L348.648 384C368.172 384 384 368.172 384 348.648L384 342.062L460.001 342.062C463.752 352.355 473.607 359.739 485.181 359.739C499.969 359.739 512 347.708 512 332.919C512 318.131 499.969 306.1 485.181 306.1C473.607 306.1 463.752 313.484 460.001 323.776L384 323.776L384 265.143L460.001 265.143" fill="#414042"/>
</g>
</svg>
