<svg height="100%" stroke-miterlimit="10" style="fill-rule:nonzero;clip-rule:evenodd;stroke-linecap:round;stroke-linejoin:round;" viewBox="0 0 512 512" width="100%" xml:space="preserve" xmlns="http://www.w3.org/2000/svg" xmlns:xlink="http://www.w3.org/1999/xlink">
<g>
<path d="M136.577 88.9593C136.577 88.9593 66.6703 210.003 63.4335 212.593C60.1972 215.183 38.1897 239.132 35.6006 247.545C33.0115 255.959 23.3025 297.385 22.0075 299.327C20.713 301.269 0 342.693 0 349.814C0 356.934 11.6508 393.184 18.7716 397.068C25.8912 400.951 48.546 413.25 48.546 413.25C48.546 413.25 55.019 426.84 59.5499 429.43C64.0808 432.019 126.867 433.313 126.867 433.313C126.867 433.313 322.995 436.55 329.464 437.197C335.937 437.845 422.675 449.496 433.031 446.26C443.39 443.023 493.227 424.251 500.348 419.72C507.469 415.193 512 391.889 512 389.947C512 388.005 496.465 299.327 491.934 294.796C487.402 290.265 476.398 221.007 476.398 214.534C476.398 208.061 471.222 169.225 468.633 155.631C466.043 142.038 373.484 89.6077 363.124 82.4866C352.769 75.3693 280.921 68.2482 258.911 65.0099C236.905 61.7755 136.577 88.9593 136.577 88.9593" fill="#4b4f54"/>
<path d="M468.618 155.669C466.029 142.075 373.47 89.6458 363.113 82.5253C352.755 75.4048 280.907 68.2844 258.898 65.0478C237.985 61.9721 146.402 86.3544 137.348 88.7864C136.858 100.807 135.68 134.161 137.533 137.869C139.799 142.4 204.204 255.352 205.498 257.941C206.793 260.53 200.967 281.244 200.967 281.244C200.967 281.244 217.149 266.031 224.917 265.061C232.684 264.089 338.193 268.62 341.104 270.24C344.019 271.856 366.996 286.419 366.996 286.419C366.996 286.419 372.822 265.383 373.47 264.089C374.04 262.948 455.423 221.724 476.152 210.661C475.113 198.651 470.882 167.54 468.618 155.669" fill="#727980"/>
<path d="M181.912 421.635C179.323 421.635 162.926 383.663 162.926 383.663C162.926 383.663 188.817 280.096 188.817 277.507C188.817 274.918 113.732 160.134 113.732 155.815C113.732 152.798 124.869 118.194 131.582 97.6111C115.528 125.343 66.1669 210.398 63.4592 212.563C60.223 215.152 38.2153 239.103 35.626 247.518C33.0367 255.93 23.3277 297.358 22.0331 299.3C20.7384 301.242 0.0253924 342.666 0.0253924 349.787C0.0253924 356.907 11.6764 393.157 18.7969 397.041C25.9166 400.921 48.572 413.22 48.572 413.22C48.572 413.22 55.0444 426.814 59.5757 429.403C64.1065 431.993 126.893 433.287 126.893 433.287C126.893 433.287 177.944 434.128 228.814 435.043C206.704 428.489 183.263 421.635 181.912 421.635" fill="#34373b"/>
<path d="M363.138 241.297C351.922 243.887 234.977 241.297 234.977 241.297C234.977 241.297 364.001 255.622 370.474 255.794C376.245 255.951 453.649 218.261 475.585 204.879C474.023 190.642 470.589 165.956 468.633 155.679C466.043 142.086 373.481 89.6568 363.124 82.5363C352.766 75.4158 280.918 68.2953 258.913 65.0587C241.611 62.517 175.996 78.7511 148.698 85.8168C183.245 80.7333 255.716 70.592 262.596 73.8652C271.658 78.1806 393.346 120.472 402.409 126.514C411.471 132.552 431.322 163.623 432.613 171.822C433.908 180.022 374.358 238.708 363.138 241.297" fill="#939aa0"/>
<path d="M481.151 248.231C481.162 248.335 489.13 339.676 489.13 342.262C489.13 344.851 495.172 403.109 492.147 406.127C489.13 409.147 439.935 418.21 436.052 416.483C432.169 414.757 395.492 350.465 393.764 344.639C392.04 338.809 370.028 300.406 370.028 300.406C370.028 301.7 383.839 375.491 384.27 378.943C384.591 381.492 392.665 423.52 396.868 445.364C414.208 447.006 429.106 447.916 433.031 446.691C443.39 443.455 493.227 424.683 500.348 420.151C507.469 415.62 512 392.321 512 390.379C512 388.437 496.465 299.759 491.934 295.227C489.363 292.653 484.698 269.203 481.151 248.231" fill="#727980"/>
</g>
</svg>
