<svg height="100%" stroke-miterlimit="10" style="fill-rule:nonzero;clip-rule:evenodd;stroke-linecap:round;stroke-linejoin:round;" viewBox="0 0 512 512" width="100%" xml:space="preserve" xmlns="http://www.w3.org/2000/svg" xmlns:xlink="http://www.w3.org/1999/xlink">
<g opacity="1">
<path d="M508.562 270.286C508.562 403.786 395.487 512 256 512C116.513 512 3.43824 403.786 3.43824 270.286C3.43824 136.79 116.513 124.318 256 124.318C395.487 124.318 508.562 136.79 508.562 270.286" fill="#d71e30"/>
<path d="M255.834 512C255.83 512 255.829 512 255.825 512C255.834 512 255.825 512 255.834 512M255.631 124.318C255.754 124.318 255.876 124.318 256 124.318C255.879 124.318 255.751 124.318 255.631 124.318" fill="#bdbbbc"/>
<path d="M256 512L256 512C255.944 512 255.89 512 255.834 512C255.825 512 255.834 512 255.825 512C241.353 511.99 227.192 510.752 213.388 508.508C332.572 489.116 423.34 389.877 423.34 270.286C423.34 150.689 332.584 128.231 213.388 124.851C227.124 124.46 241.235 124.319 255.631 124.318C255.751 124.318 255.879 124.318 256 124.318L256 124.318C395.487 124.318 508.562 136.79 508.562 270.286C508.562 403.786 395.487 512 256 512" fill="#9f1521"/>
<path d="M342.468 134.711C371.897 133.332 412.991 141.035 484.76 179.737C484.76 179.737 428.982 102.262 359.253 86.7681C328.652 81.9885 293.363 85.4907 272.27 100.154L272.27 0L239.73 0L239.73 100.154C218.633 85.4907 183.347 81.9885 152.746 86.7681C83.0184 102.262 27.2369 179.737 27.2369 179.737C99.0066 141.035 140.097 133.332 169.528 134.711C137.404 152.447 83.9421 194.285 86.1179 275.805C126.657 207.303 170.989 172.864 235.029 159.959C247.176 185.75 271.497 245.218 259.657 286.65C271.883 281.216 317.445 225.758 304.479 167.264C354.2 183.967 391.416 217.571 425.883 275.805C428.054 194.285 374.594 152.447 342.468 134.711" fill="#7dcd4f"/>
</g>
</svg>
