<svg height="100%" stroke-miterlimit="10" style="fill-rule:nonzero;clip-rule:evenodd;stroke-linecap:round;stroke-linejoin:round;" viewBox="0 0 512 512" width="100%" xml:space="preserve" xmlns="http://www.w3.org/2000/svg" xmlns:xlink="http://www.w3.org/1999/xlink">
<g>
<path d="M274.32 8.50103C269.746 3.0964 263.06 0 255.974 0C248.886 0 242.203 3.09908 237.648 8.48494C230.477 16.9216 62.0327 216.268 62.0327 318.018C62.0327 424.982 149.035 512 255.974 512C362.941 512 449.967 424.982 449.967 318.018C449.967 218.332 292.292 29.6718 274.32 8.50103" fill="#f4f4f4" />
<path d="M255.974 502.617C357.759 502.617 440.584 419.808 440.584 318.018C440.584 219.89 274.236 22.9026 267.159 14.5625C264.376 11.273 260.291 9.38303 255.974 9.38303C251.677 9.38303 247.578 11.273 244.798 14.5625C237.707 22.9026 71.4157 219.89 71.4157 318.018C71.4157 419.808 154.209 502.617 255.974 502.617" fill="#363332" />
<path d="M355.81 417.818C487.548 374.059 336.414 171.356 259.626 61.8637C281.341 123.207 332.679 171.921 350.046 235.688C357.995 264.918 364.954 300.858 354.523 330.564C348.054 348.995 304.973 434.703 355.81 417.818" fill="#616060"/>
<path d="M262.8 348.073C294.635 274.657 261.427 228.321 223.917 165.444C208.646 139.888 195.995 114.867 186.712 88.5142C136.284 156.882 71.4157 256.725 71.4157 318.018C71.4157 419.808 154.209 502.617 255.974 502.617C275.837 502.617 294.96 499.368 312.908 493.532C257.516 475.91 236.758 408.116 262.8 348.073" fill="#2c2929"/>
</g>
</svg>
