<svg height="100%" stroke-miterlimit="10" style="fill-rule:nonzero;clip-rule:evenodd;stroke-linecap:round;stroke-linejoin:round;" viewBox="0 0 512 512" width="100%" xml:space="preserve" xmlns="http://www.w3.org/2000/svg" xmlns:xlink="http://www.w3.org/1999/xlink">
<g>
<path d="M393.31 281.738C310.058 247.003 230.515 205.583 158.639 150.394C155.874 125.783 141.654 102.819 118.354 89.8706C92.5765 75.5377 62.2533 77.1237 38.7073 91.385L99.9271 125.413C105.159 128.321 107.042 134.925 104.134 140.157L76.9232 189.122C74.0166 194.352 67.4132 196.236 62.1817 193.329L0.573403 159.095C0.573403 186.941 15.2738 213.947 41.3379 228.443C64.8638 241.507 92.1567 241.342 114.648 230.377C200.192 259.502 276.798 305.817 349.381 359.87C351.652 385.136 365.986 408.877 389.828 422.134C415.617 436.466 445.939 434.869 469.485 420.618L408.266 386.59C403.025 383.682 401.141 377.069 404.047 371.848L431.27 322.873C434.176 317.651 440.78 315.758 446.01 318.676L507.619 352.909C507.61 325.063 492.92 298.057 466.844 283.561C443.246 270.436 415.831 270.662 393.31 281.738" fill="#0d1110"/>
<path d="M249.935 298.528C223.493 282.803 196.312 268.46 168.211 255.9C151.288 262.882 134.151 269.484 116.829 275.76C94.4809 263.742 66.7787 262.635 42.5772 275.247C16.4214 288.885 1.05434 315.072 8.52651e-14 342.57L62.1102 310.198C67.4132 307.435 73.9652 309.503 76.7286 314.805L102.62 364.477C105.393 369.789 103.326 376.342 98.0228 379.106L35.5137 411.681C58.7622 427.007 89.4031 429.607 115.856 415.828C139.801 403.348 154.708 380.345 157.86 355.448C187.907 335.218 218.516 316.095 249.935 298.528" fill="#0d1110"/>
<path d="M262.025 211.265C288.191 226.252 315.024 240.021 342.389 252.859C360.181 245.264 378.28 238.23 396.718 231.862C418.78 243.103 445.776 243.881 469.414 231.555C495.58 217.919 510.947 191.732 512 164.235L449.891 196.605C444.578 199.369 438.025 197.3 435.261 191.998L409.372 142.326C406.608 137.013 408.665 130.47 413.978 127.697L476.477 95.1214C453.228 79.7954 422.588 77.1961 396.145 90.9756C372.281 103.404 357.397 126.295 354.162 151.089C324.913 173.786 294.079 193.627 262.025 211.265" fill="#0d1110"/>
</g>
</svg>
