<svg height="100%" stroke-miterlimit="10" style="fill-rule:nonzero;clip-rule:evenodd;stroke-linecap:round;stroke-linejoin:round;" viewBox="0 0 512 512" width="100%" xml:space="preserve" xmlns="http://www.w3.org/2000/svg" xmlns:xlink="http://www.w3.org/1999/xlink">
<g opacity="1">
<path d="M284.091 16.9408L284.091 12.5241C284.091 5.6354 279.189 1.42109e-13 273.197 1.42109e-13L238.803 1.42109e-13C232.811 1.42109e-13 227.909 5.6354 227.909 12.5241L227.909 16.9408C227.909 20.6314 229.354 23.9124 231.582 26.2063L280.418 26.2063C282.648 23.9124 284.091 20.6314 284.091 16.9408" fill="#8b0600"/>
<path d="M280.209 26.8062L280.193 26.4501L280.418 26.2063L231.582 26.2063L231.807 26.4501L231.791 26.8062L231.791 108.596L280.209 108.596L280.209 26.8062" fill="#b91b00"/>
<path d="M316.521 227.995C316.521 199.611 301.532 175.067 280.209 164.275L280.209 108.596L231.791 108.596L231.791 164.275C210.468 175.067 195.479 199.611 195.479 227.995L195.479 244.236L316.521 244.236L316.521 227.995" fill="#005100"/>
<path d="M195.479 458.246L195.479 478.601C195.479 480.921 195.69 483.186 196.086 485.373C198.829 500.525 210.568 512 224.529 512L287.471 512C301.432 512 313.173 500.525 315.914 485.373C316.31 483.186 316.521 480.921 316.521 478.601L316.521 458.246L195.479 458.246" fill="#005100"/>
<path d="M236.379 172.402C235.566 172.68 234.332 173.226 232.854 174.111C229.871 175.807 225.775 179.187 222.389 184.673C218.869 190.084 216.226 197.36 214.211 205.709C212.105 214.074 211.096 223.578 210.033 233.802C209.561 238.5 209.279 243.368 208.928 248.348L226.781 248.533C226.781 248.533 223.201 191.999 236.379 172.402" fill="#478d36"/>
<path d="M227.226 453.657L208.326 452.738L208.326 495.889L226.96 496.195L227.226 453.657" fill="#478d36"/>
<path d="M316.521 244.236L195.479 244.236L195.479 458.246L316.521 458.246L316.521 244.236" fill="#ebebec"/>
<path d="M299.043 244.236L208.684 244.236L208.684 458.246L299.043 458.246L299.043 244.236" fill="#ffffff"/>
<path d="M292.052 244.236L226.941 244.236L226.941 458.246L292.052 458.246L292.052 244.236" fill="#ebebec"/>
<path d="M196.086 485.373C198.829 500.525 210.568 512 224.529 512L287.471 512C301.432 512 313.173 500.525 315.914 485.373C315.914 485.373 313.238 495.421 256.428 495.421C197 495.421 196.086 485.373 196.086 485.373" fill="#003600"/>
</g>
</svg>
