<svg height="100%" stroke-miterlimit="10" style="fill-rule:nonzero;clip-rule:evenodd;stroke-linecap:round;stroke-linejoin:round;" viewBox="0 0 512 512" width="100%" xml:space="preserve" xmlns="http://www.w3.org/2000/svg" xmlns:xlink="http://www.w3.org/1999/xlink">
<g>
<path d="M11.0417 469.685L500.961 469.685L500.961 20.6486L11.0417 20.6486L11.0417 469.685Z" fill="#ebeae9"/>
<path d="M30.6711 450.055L30.6711 40.279L481.331 40.279L481.331 450.055L30.6711 450.055" fill="#53c1f0"/>
<path d="M303.971 459.87L282.013 459.87L282.013 32.9169L303.971 32.9169L303.971 459.87" fill="#ebeae9"/>
<path d="M35.2848 45.4925L276.979 444.841L35.2848 444.841L35.2848 45.4925Z" fill="#5ccaf5"/>
<path d="M309.491 45.4925L475.81 444.841L309.491 445.42L309.491 45.4925Z" fill="#5ccaf5"/>
<path d="M512 471.108L512 480.113C512 480.604 511.975 481.071 511.902 481.536C511.214 487.082 506.479 491.351 500.762 491.351L11.238 491.351C5.52086 491.351 0.784975 487.082 0.0981219 481.536C0.0250311 481.071 0 480.604 0 480.113L0 471.108C0 464.899 5.03025 459.87 11.238 459.87L500.762 459.87C506.97 459.87 512 464.899 512 471.108" fill="#f2f2f2"/>
<path d="M511.946 481.202C511.974 480.863 511.997 480.514 512 480.184C511.998 480.533 511.983 480.868 511.946 481.202M512 471.122C512 464.978 507.085 459.981 500.981 459.899L500.981 459.872C507.088 459.989 512 464.974 512 471.108L512 471.122" fill="#eae9e8"/>
</g>
</svg>
